<svg xmlns="http://www.w3.org/2000/svg" xmlns:xlink="http://www.w3.org/1999/xlink" width="500" zoomAndPan="magnify" viewBox="0 0 375 374.999991" height="500" preserveAspectRatio="xMidYMid meet" version="1.0"><path fill="#cc7d7c" d="M 139.519531 161.664062 C 243.074219 218.425781 143.066406 278.988281 140.511719 161.066406 C 143.066406 278.988281 40.53125 222.796875 141.53125 161.625 C 40.511719 222.796875 37.996094 106.023438 141.523438 162.773438 C 37.996094 106.023438 138.007812 45.457031 140.585938 163.382812 C 138.035156 45.457031 240.578125 101.652344 139.578125 162.820312 C 240.550781 101.652344 243.074219 218.425781 139.519531 161.664062 Z M 139.519531 161.664062 " fill-opacity="1" fill-rule="nonzero"/><path fill="#fbdcd9" d="M 149.929688 162.222656 C 149.929688 162.839844 149.871094 163.449219 149.75 164.054688 C 149.628906 164.65625 149.453125 165.242188 149.214844 165.8125 C 148.980469 166.382812 148.691406 166.921875 148.347656 167.433594 C 148.007812 167.945312 147.617188 168.417969 147.179688 168.855469 C 146.746094 169.289062 146.269531 169.679688 145.757812 170.019531 C 145.246094 170.363281 144.703125 170.652344 144.132812 170.886719 C 143.566406 171.121094 142.976562 171.300781 142.371094 171.421875 C 141.769531 171.539062 141.15625 171.601562 140.539062 171.601562 C 139.925781 171.601562 139.3125 171.539062 138.707031 171.421875 C 138.105469 171.300781 137.515625 171.121094 136.945312 170.886719 C 136.378906 170.652344 135.835938 170.363281 135.324219 170.019531 C 134.8125 169.679688 134.335938 169.289062 133.902344 168.855469 C 133.464844 168.417969 133.074219 167.945312 132.734375 167.433594 C 132.390625 166.921875 132.101562 166.382812 131.867188 165.8125 C 131.628906 165.242188 131.453125 164.65625 131.332031 164.054688 C 131.210938 163.449219 131.152344 162.839844 131.152344 162.222656 C 131.152344 161.609375 131.210938 161 131.332031 160.394531 C 131.453125 159.792969 131.628906 159.203125 131.867188 158.636719 C 132.101562 158.066406 132.390625 157.527344 132.734375 157.015625 C 133.074219 156.503906 133.464844 156.03125 133.902344 155.59375 C 134.335938 155.160156 134.8125 154.769531 135.324219 154.429688 C 135.835938 154.085938 136.378906 153.796875 136.945312 153.5625 C 137.515625 153.324219 138.105469 153.148438 138.707031 153.027344 C 139.3125 152.90625 139.925781 152.847656 140.539062 152.847656 C 141.15625 152.847656 141.769531 152.90625 142.371094 153.027344 C 142.976562 153.148438 143.566406 153.324219 144.132812 153.5625 C 144.703125 153.796875 145.246094 154.085938 145.757812 154.429688 C 146.269531 154.769531 146.746094 155.160156 147.179688 155.59375 C 147.617188 156.03125 148.007812 156.503906 148.347656 157.015625 C 148.691406 157.527344 148.980469 158.066406 149.214844 158.636719 C 149.453125 159.203125 149.628906 159.792969 149.75 160.394531 C 149.871094 161 149.929688 161.609375 149.929688 162.222656 Z M 149.929688 162.222656 " fill-opacity="1" fill-rule="nonzero"/><path fill="#ddd4d4" d="M 265.054688 119.527344 C 326.417969 153.148438 267.148438 189.046875 265.644531 119.171875 C 267.148438 189.046875 206.394531 155.742188 266.242188 119.5 C 206.386719 155.742188 204.886719 86.550781 266.242188 120.179688 C 204.871094 86.558594 264.136719 50.660156 265.652344 120.535156 C 264.136719 50.660156 324.902344 83.964844 265.046875 120.207031 C 324.921875 83.964844 326.417969 153.15625 265.054688 119.527344 Z M 265.054688 119.527344 " fill-opacity="1" fill-rule="nonzero"/><path fill="#fbdcd9" d="M 271.21875 119.851562 C 271.21875 120.21875 271.183594 120.578125 271.113281 120.9375 C 271.039062 121.296875 270.933594 121.644531 270.796875 121.980469 C 270.65625 122.316406 270.484375 122.636719 270.28125 122.941406 C 270.078125 123.242188 269.847656 123.523438 269.589844 123.78125 C 269.332031 124.039062 269.050781 124.269531 268.746094 124.472656 C 268.441406 124.675781 268.121094 124.847656 267.785156 124.988281 C 267.445312 125.125 267.097656 125.230469 266.738281 125.304688 C 266.382812 125.375 266.019531 125.410156 265.652344 125.410156 C 265.289062 125.410156 264.925781 125.375 264.566406 125.304688 C 264.210938 125.230469 263.863281 125.125 263.523438 124.988281 C 263.1875 124.847656 262.867188 124.675781 262.5625 124.472656 C 262.257812 124.269531 261.976562 124.039062 261.71875 123.78125 C 261.460938 123.523438 261.230469 123.242188 261.027344 122.941406 C 260.824219 122.636719 260.652344 122.316406 260.511719 121.980469 C 260.371094 121.644531 260.265625 121.296875 260.195312 120.9375 C 260.125 120.578125 260.089844 120.21875 260.089844 119.851562 C 260.089844 119.488281 260.125 119.128906 260.195312 118.769531 C 260.265625 118.410156 260.371094 118.0625 260.511719 117.726562 C 260.652344 117.390625 260.824219 117.070312 261.027344 116.765625 C 261.230469 116.460938 261.460938 116.183594 261.71875 115.925781 C 261.976562 115.667969 262.257812 115.4375 262.5625 115.234375 C 262.867188 115.03125 263.1875 114.859375 263.523438 114.71875 C 263.863281 114.578125 264.210938 114.472656 264.566406 114.402344 C 264.925781 114.332031 265.289062 114.296875 265.652344 114.296875 C 266.019531 114.296875 266.382812 114.332031 266.738281 114.402344 C 267.097656 114.472656 267.445312 114.578125 267.785156 114.71875 C 268.121094 114.859375 268.441406 115.03125 268.746094 115.234375 C 269.050781 115.4375 269.332031 115.667969 269.589844 115.925781 C 269.847656 116.183594 270.078125 116.460938 270.28125 116.765625 C 270.484375 117.070312 270.65625 117.390625 270.796875 117.726562 C 270.933594 118.0625 271.039062 118.410156 271.113281 118.769531 C 271.183594 119.128906 271.21875 119.488281 271.21875 119.851562 Z M 271.21875 119.851562 " fill-opacity="1" fill-rule="nonzero"/><path fill="#f9afa6" d="M 253.925781 250.683594 C 330.308594 292.550781 256.535156 337.226562 254.65625 250.246094 C 256.527344 337.226562 180.90625 295.773438 255.402344 250.65625 C 180.90625 295.773438 179.035156 209.636719 255.402344 251.503906 C 179.019531 209.636719 252.792969 164.960938 254.671875 251.945312 C 252.804688 164.960938 328.429688 206.417969 253.925781 251.53125 C 328.449219 206.417969 330.308594 292.585938 253.925781 250.683594 Z M 253.925781 250.683594 " fill-opacity="1" fill-rule="nonzero"/><path fill="#fbdcd9" d="M 261.59375 251.09375 C 261.59375 251.546875 261.550781 251.996094 261.460938 252.441406 C 261.371094 252.886719 261.242188 253.320312 261.066406 253.738281 C 260.894531 254.15625 260.679688 254.554688 260.429688 254.933594 C 260.175781 255.3125 259.890625 255.660156 259.566406 255.980469 C 259.246094 256.300781 258.898438 256.589844 258.519531 256.839844 C 258.140625 257.09375 257.742188 257.304688 257.320312 257.480469 C 256.902344 257.652344 256.46875 257.785156 256.023438 257.871094 C 255.578125 257.960938 255.128906 258.003906 254.671875 258.003906 C 254.21875 258.003906 253.769531 257.960938 253.324219 257.871094 C 252.878906 257.785156 252.445312 257.652344 252.023438 257.480469 C 251.605469 257.304688 251.207031 257.09375 250.828125 256.839844 C 250.449219 256.589844 250.101562 256.300781 249.78125 255.980469 C 249.457031 255.660156 249.171875 255.3125 248.917969 254.933594 C 248.667969 254.554688 248.453125 254.15625 248.277344 253.738281 C 248.105469 253.320312 247.972656 252.886719 247.886719 252.441406 C 247.796875 251.996094 247.753906 251.546875 247.753906 251.09375 C 247.753906 250.640625 247.796875 250.191406 247.886719 249.746094 C 247.972656 249.300781 248.105469 248.867188 248.277344 248.449219 C 248.453125 248.03125 248.667969 247.632812 248.917969 247.253906 C 249.171875 246.878906 249.457031 246.527344 249.78125 246.207031 C 250.101562 245.886719 250.449219 245.601562 250.828125 245.347656 C 251.207031 245.097656 251.605469 244.882812 252.023438 244.710938 C 252.445312 244.535156 252.878906 244.40625 253.324219 244.316406 C 253.769531 244.226562 254.21875 244.183594 254.671875 244.183594 C 255.128906 244.183594 255.578125 244.226562 256.023438 244.316406 C 256.46875 244.40625 256.902344 244.535156 257.320312 244.710938 C 257.742188 244.882812 258.140625 245.097656 258.519531 245.347656 C 258.898438 245.601562 259.246094 245.886719 259.566406 246.207031 C 259.890625 246.527344 260.175781 246.878906 260.429688 247.253906 C 260.679688 247.632812 260.894531 248.03125 261.066406 248.449219 C 261.242188 248.867188 261.371094 249.300781 261.460938 249.746094 C 261.550781 250.191406 261.59375 250.640625 261.59375 251.09375 Z M 261.59375 251.09375 " fill-opacity="1" fill-rule="nonzero"/></svg>