<svg xmlns="http://www.w3.org/2000/svg" xmlns:xlink="http://www.w3.org/1999/xlink" width="500" zoomAndPan="magnify" viewBox="0 0 375 374.999991" height="500" preserveAspectRatio="xMidYMid meet" version="1.0"><defs><clipPath id="32a2575b7d"><path d="M 60.0625 48 L 315 48 L 315 275 L 60.0625 275 Z M 60.0625 48 " clip-rule="nonzero"/></clipPath></defs><g clip-path="url(#32a2575b7d)"><path fill="#ff9797" d="M 232.210938 242.867188 C 232.210938 242.300781 232.238281 241.734375 232.199219 241.175781 C 232.1875 241.027344 231.96875 240.875 231.8125 240.785156 C 231.71875 240.734375 231.507812 240.765625 231.429688 240.84375 C 230.628906 241.589844 229.726562 242.285156 229.824219 243.5625 C 229.425781 243.960938 228.984375 244.324219 228.636719 244.773438 C 228.199219 245.332031 227.613281 245.058594 227.089844 245.167969 C 226.566406 245.691406 225.984375 246.1875 225.507812 246.765625 C 224.601562 247.867188 222.945312 248.460938 223.101562 250.285156 C 222.257812 250.921875 221.820312 252.210938 220.386719 251.964844 C 220.226562 251.941406 219.769531 252.5 219.796875 252.75 C 219.945312 254.160156 219.535156 255.269531 218.390625 256.148438 C 217.796875 256.605469 217.355469 257.253906 216.769531 257.71875 C 216.203125 258.164062 216.421875 258.726562 216.34375 259.410156 C 213.757812 261.957031 211.085938 264.601562 208.417969 267.226562 L 208.417969 269.492188 C 207.867188 270.039062 207.332031 270.574219 206.765625 271.140625 L 204.507812 271.140625 C 203.339844 272.308594 202.15625 273.484375 201.066406 274.566406 C 200.507812 274.566406 200.132812 274.578125 199.753906 274.566406 C 198.320312 274.519531 198.273438 274.464844 198.242188 272.925781 C 198.210938 271.386719 198.066406 271.203125 196.84375 271.175781 C 196.65625 271.175781 196.464844 271.175781 196.277344 271.175781 C 195.171875 271.191406 194.011719 271.375 193.28125 270.195312 C 193.214844 270.085938 192.953125 270.039062 192.789062 270.050781 C 191.65625 270.101562 190.59375 270.109375 189.792969 269.023438 C 189.539062 268.675781 188.78125 269.023438 188.289062 268.613281 C 187.25 267.757812 187.21875 267.792969 186.378906 267.777344 C 185.417969 267.761719 185.398438 267.789062 184.453125 266.988281 C 184.144531 266.722656 183.886719 266.59375 183.457031 266.636719 C 182.519531 266.722656 181.683594 266.683594 180.941406 265.839844 C 180.386719 265.214844 179.253906 265.5 178.605469 264.640625 C 178.144531 264.035156 177.207031 264.472656 176.484375 264.378906 C 176.3125 264.355469 176.144531 264.289062 175.992188 264.210938 C 175.585938 264.007812 175.457031 263.683594 175.933594 262.746094 C 176.027344 262.378906 175.726562 262.53125 175.613281 262.757812 C 175.378906 263.230469 175.613281 263.464844 176.089844 263.234375 C 176.316406 263.121094 176.46875 262.820312 176.601562 262.570312 C 176.625 262.53125 176.316406 262.222656 175.9375 262.746094 C 175.164062 263.386719 174.800781 263.265625 174.644531 262.851562 C 174.523438 262.523438 174.558594 262.140625 174.453125 261.804688 C 174.160156 260.832031 173.238281 260.691406 172.304688 261.445312 C 172.054688 261.648438 171.777344 261.820312 171.511719 262.003906 C 170.976562 261.144531 170.074219 260.988281 169.183594 260.8125 C 168.257812 259.882812 167.28125 258.988281 166.414062 258.003906 C 165.941406 257.464844 165.402344 257.664062 164.683594 257.546875 C 164.160156 256.992188 163.554688 256.273438 162.863281 255.640625 C 161.917969 254.769531 161.203125 253.636719 159.988281 253.070312 C 158.398438 253.125 158 251.546875 156.949219 250.859375 C 156.816406 250.773438 156.585938 250.789062 156.410156 250.8125 C 155.476562 250.953125 155.242188 249.816406 154.613281 249.738281 C 153.824219 249.640625 153.191406 249.519531 152.695312 248.871094 C 152.289062 248.34375 151.699219 248.539062 151.179688 248.640625 C 151.027344 248.664062 150.789062 249.003906 150.792969 249.007812 C 152.175781 250.488281 153.597656 251.929688 154.960938 253.425781 C 155.171875 253.652344 155.117188 254.101562 155.21875 254.4375 C 155.488281 255.320312 155.492188 255.320312 156.917969 255.339844 C 160.496094 258.917969 164.082031 262.507812 167.660156 266.113281 C 167.753906 266.203125 167.667969 266.476562 167.667969 266.660156 L 165.96875 266.660156 C 165.167969 265.863281 164.289062 265.125 163.589844 264.242188 C 162.957031 263.441406 162.0625 263.371094 161.242188 263.03125 C 160.609375 262.773438 161.101562 261.910156 160.800781 261.554688 C 159.957031 260.550781 158.996094 259.632812 158.003906 258.761719 C 157.792969 258.574219 157.277344 258.734375 156.902344 258.734375 C 154.765625 256.597656 152.632812 254.464844 150.492188 252.328125 C 149.167969 251.707031 149.773438 249.945312 148.527344 249.148438 C 147.441406 248.453125 146.625 247.332031 145.640625 246.34375 C 145.253906 246.675781 144.867188 247.015625 144.472656 247.351562 C 143.691406 246.597656 142.914062 245.804688 142.085938 245.066406 C 141.257812 244.335938 140.71875 243.078125 139.585938 242.945312 C 138.253906 242.785156 137.78125 241.734375 136.972656 241.042969 C 136.113281 240.3125 135.339844 239.476562 134.5625 238.652344 C 134.023438 238.082031 133.121094 238.617188 132.601562 237.875 C 132.175781 237.265625 131.558594 236.789062 131.023438 236.257812 C 129.320312 236.226562 128.570312 234.800781 127.488281 233.859375 C 126.390625 234.078125 125.796875 233.339844 125.152344 232.667969 C 124.503906 231.980469 123.855469 231.296875 123.144531 230.671875 C 122.609375 230.207031 121.699219 230.605469 121.203125 229.875 C 120.890625 229.410156 120.417969 229.0625 120.019531 228.664062 C 119.484375 228.128906 118.996094 227.539062 118.394531 227.089844 C 118.148438 226.914062 117.667969 227.0625 117.1875 227.0625 C 116.574219 226.421875 115.9375 225.730469 115.277344 225.0625 C 114.484375 224.253906 113.679688 223.457031 112.878906 222.660156 C 111.945312 222.566406 111.167969 222.234375 110.527344 221.476562 C 109.800781 220.613281 108.945312 219.859375 108.144531 219.0625 C 107.480469 218.398438 106.8125 217.726562 106.148438 217.0625 C 105.613281 216.527344 105.105469 215.972656 104.542969 215.46875 C 103.953125 214.941406 104.527344 214 103.761719 213.511719 C 103.292969 213.214844 102.949219 212.730469 102.546875 212.328125 C 102.011719 211.792969 101.476562 211.257812 100.945312 210.730469 C 101.03125 208.964844 99.429688 208.328125 98.574219 207.183594 C 98.78125 205.570312 97.292969 205.0625 96.542969 204.066406 C 96.113281 203.488281 96.476562 202.632812 95.761719 202.113281 C 95.160156 201.675781 94.679688 201.066406 94.144531 200.535156 C 94.308594 199.21875 93.304688 198.578125 92.542969 197.804688 C 91.75 197 90.960938 196.183594 90.140625 195.40625 C 89.039062 194.367188 87.890625 193.386719 88.347656 191.597656 C 88.40625 191.375 88.015625 190.933594 87.730469 190.753906 C 86.957031 190.285156 87.527344 189.339844 86.953125 188.792969 C 86.566406 188.429688 85.980469 188.15625 86.109375 187.449219 C 86.148438 187.265625 86.164062 187.054688 86.101562 186.886719 C 86.039062 186.726562 85.867188 186.601562 85.738281 186.472656 C 84.9375 185.675781 84.175781 184.832031 83.328125 184.085938 C 82.476562 183.332031 82.792969 182.019531 81.761719 181.308594 C 80.84375 180.675781 80.125 179.75 79.347656 178.929688 C 79.253906 178.832031 79.296875 178.566406 79.320312 178.386719 C 79.472656 177.445312 78.421875 177.253906 78.210938 176.585938 C 78.050781 176.085938 78.308594 175.484375 77.742188 175.070312 C 77.296875 174.742188 77.007812 174.3125 77.03125 173.664062 C 77.0625 172.957031 77.308594 172.125 76.527344 171.621094 C 75.792969 171.148438 76.179688 170.164062 75.703125 169.71875 C 74.941406 169 74.648438 168.226562 74.789062 167.246094 C 74.882812 166.613281 74.585938 166.160156 74.125 165.828125 C 73.574219 165.425781 73.804688 164.8125 73.613281 164.339844 C 73.414062 163.855469 72.636719 163.53125 72.589844 163.082031 C 72.503906 162.300781 72.421875 161.625 71.730469 161.15625 C 71.390625 160.925781 71.332031 160.597656 71.375 160.167969 C 71.472656 159.226562 71.484375 158.296875 70.539062 157.683594 C 70.222656 157.480469 70.238281 157.09375 70.242188 156.679688 C 70.246094 155.753906 70.175781 154.824219 70.132812 153.902344 C 68.53125 152.839844 69.296875 151.203125 69.117188 149.792969 C 69.09375 149.628906 69.023438 149.453125 68.925781 149.3125 C 68.820312 149.15625 68.664062 149.035156 68.53125 148.90625 C 67.746094 148.144531 68.03125 146.777344 66.953125 146.140625 C 66.769531 146.035156 66.804688 145.429688 66.867188 145.082031 C 67.066406 143.996094 66.480469 143.320312 65.722656 142.734375 C 65.722656 141.589844 65.621094 140.445312 65.753906 139.328125 C 65.878906 138.253906 65.300781 137.632812 64.636719 137.101562 C 64.996094 136.613281 65.296875 136.199219 65.597656 135.789062 C 64.464844 135.230469 64.855469 133.78125 63.996094 133.054688 C 63.851562 132.933594 63.625 132.792969 63.613281 132.65625 C 63.535156 131.542969 63.632812 130.402344 63.417969 129.328125 C 63.25 128.496094 62.082031 128.089844 62.300781 126.953125 C 62.441406 126.226562 62.238281 125.4375 62.347656 124.703125 C 62.507812 123.605469 61.949219 122.949219 61.195312 122.359375 L 61.195312 113.261719 C 60.503906 112.613281 60.058594 111.964844 60.0625 110.875 C 60.121094 102.203125 60.09375 93.535156 60.09375 84.871094 C 60.933594 84.265625 61.402344 83.539062 61.242188 82.480469 C 61.152344 81.929688 61.199219 81.363281 61.746094 80.996094 C 62.488281 80.492188 62.351562 79.722656 62.367188 78.984375 C 62.378906 78.632812 62.359375 78.167969 62.566406 77.949219 C 64.128906 76.3125 65.742188 74.722656 67.355469 73.136719 C 67.460938 73.03125 67.710938 72.992188 67.863281 73.027344 C 68.980469 73.308594 69.199219 71.730469 70.226562 71.890625 C 70.664062 71.957031 70.9375 71.839844 71.21875 71.53125 C 71.847656 70.847656 72.527344 70.207031 73.109375 69.628906 C 74.328125 69.550781 75.546875 69.992188 76.285156 68.730469 C 76.355469 68.605469 76.582031 68.511719 76.742188 68.496094 C 77.117188 68.460938 77.496094 68.46875 77.875 68.492188 C 78.449219 68.523438 78.9375 68.40625 79.347656 67.933594 C 79.839844 67.363281 80.40625 66.859375 80.9375 66.324219 C 81.933594 66.351562 82.636719 65.859375 83.296875 65.152344 C 83.472656 64.960938 84.210938 65.25 84.351562 65.0625 C 85.28125 63.824219 86.542969 63.824219 87.859375 64 C 88.011719 64.019531 88.171875 64.234375 88.246094 64.394531 C 88.285156 64.488281 88.203125 64.675781 88.125 64.785156 C 88.015625 64.933594 87.867188 65.054688 87.730469 65.1875 C 87.59375 65.324219 87.464844 65.453125 87.332031 65.589844 C 87.574219 65.800781 87.8125 66.175781 88.066406 66.191406 C 88.792969 66.226562 89.542969 66.175781 90.257812 66.035156 C 90.683594 65.953125 90.796875 65.527344 91.007812 64.585938 C 91.097656 64.21875 90.796875 64.367188 90.683594 64.597656 C 90.449219 65.070312 90.683594 65.304688 91.160156 65.074219 C 91.390625 64.960938 91.539062 64.660156 91.675781 64.410156 C 91.695312 64.367188 91.390625 64.0625 91.011719 64.585938 C 90.238281 65.226562 89.882812 65.105469 89.714844 64.691406 C 89.234375 63.554688 89.652344 62.832031 90.761719 62.828125 C 92.070312 62.828125 93.382812 62.828125 94.679688 62.828125 C 95.289062 61.976562 96.027344 61.492188 97.074219 61.695312 C 97.929688 61.863281 98.414062 61.304688 98.96875 60.796875 C 99.394531 60.402344 100.140625 60.367188 100.449219 60.777344 C 101.070312 61.617188 102.089844 61.488281 102.792969 61.976562 C 103.558594 62.503906 104.148438 63.277344 104.828125 63.957031 C 105.453125 63.269531 106.066406 62.652344 107.164062 62.804688 C 107.980469 62.921875 108.007812 62.828125 109.066406 61.980469 C 109.382812 61.726562 109.515625 61.839844 109.890625 62.1875 C 110.898438 63.117188 111.160156 63.085938 112.199219 62.261719 C 112.96875 61.648438 113.113281 61.730469 113.328125 62.9375 C 113.511719 63.996094 114.503906 64.359375 115.324219 63.664062 C 115.609375 63.417969 115.859375 63.132812 116.128906 62.867188 C 116.535156 63.238281 116.882812 63.75 117.355469 63.925781 C 117.851562 64.109375 118.472656 64.003906 119.03125 63.953125 C 119.457031 63.910156 119.789062 63.996094 119.980469 64.398438 C 120.453125 65.40625 121.695312 64.824219 122.332031 65.578125 C 123.058594 66.441406 123.914062 67.1875 124.714844 67.988281 C 125.378906 68.652344 126.054688 69.308594 126.707031 69.992188 C 126.824219 70.109375 126.941406 70.328125 126.910156 70.457031 C 126.628906 71.578125 127.984375 71.902344 128.042969 72.820312 C 128.0625 73.15625 127.9375 73.527344 127.792969 73.835938 C 127.628906 74.183594 126.542969 74.367188 126.296875 74.054688 C 125.679688 73.277344 124.820312 73.140625 123.972656 72.820312 C 123.328125 72.574219 122.882812 71.8125 122.355469 71.277344 C 121.429688 70.339844 120.511719 69.398438 119.640625 68.511719 C 119.019531 68.433594 118.445312 68.683594 118.015625 68.097656 C 117.691406 67.664062 117.304688 67.265625 116.632812 67.355469 C 115.6875 67.472656 114.800781 67.40625 114.148438 66.511719 C 113.984375 66.292969 113.496094 66.289062 113.148438 66.242188 C 112.609375 66.171875 112.058594 66.144531 111.515625 66.097656 C 110.953125 64.964844 109.5 65.371094 108.785156 64.503906 C 108.664062 64.359375 108.539062 64.171875 108.386719 64.113281 C 107.871094 63.925781 107.332031 63.824219 106.863281 64.238281 C 106.582031 64.488281 106.328125 64.769531 105.996094 65.101562 C 103.25 65.101562 100.433594 65.125 97.617188 65.078125 C 96.953125 65.070312 96.574219 65.40625 96.234375 65.828125 C 95.957031 66.171875 95.6875 66.253906 95.261719 66.246094 C 93.855469 66.226562 93.828125 66.242188 92.777344 67.027344 C 92.460938 67.261719 92.203125 67.390625 91.78125 67.378906 C 90.464844 67.332031 89.152344 67.363281 87.902344 67.363281 C 87.289062 67.847656 86.957031 68.644531 86.03125 68.5 C 85.648438 68.445312 85.363281 68.652344 85.109375 68.992188 C 84.433594 69.914062 83.03125 69.511719 82.359375 70.578125 C 81.742188 71.546875 80.828125 72.210938 79.535156 71.890625 C 79.117188 71.785156 78.765625 71.878906 78.53125 72.191406 C 78.050781 72.835938 77.449219 73.183594 76.617188 73.027344 C 76.207031 73.40625 75.800781 73.78125 75.390625 74.160156 C 74.082031 73.671875 73.667969 75.425781 72.46875 75.304688 C 71.5 75.207031 71.234375 76.527344 70.113281 76.484375 C 69.152344 76.449219 68.742188 77.625 68.015625 78.171875 C 67.230469 78.757812 66.960938 79.550781 66.773438 80.492188 C 66.644531 81.140625 65.832031 80.84375 65.316406 80.96875 C 64.878906 81.078125 64.726562 81.425781 64.863281 81.691406 C 64.949219 81.851562 65.132812 81.949219 65.253906 82.09375 C 65.960938 82.976562 66.085938 83.417969 65.542969 84.003906 C 65.027344 84.570312 64.65625 85.074219 64.617188 85.910156 C 64.59375 86.347656 63.953125 86.75 63.542969 87.21875 C 63.542969 89.023438 63.535156 90.90625 63.558594 92.785156 C 63.558594 92.921875 63.765625 93.089844 63.914062 93.183594 C 64.007812 93.246094 64.230469 93.25 64.300781 93.183594 C 66.308594 91.195312 68.328125 89.222656 70.285156 87.183594 C 70.898438 86.542969 71.582031 86.617188 72.308594 86.585938 C 72.660156 86.570312 73.164062 86.585938 73.332031 86.378906 C 73.992188 85.546875 74.816406 85.339844 75.796875 85.460938 C 75.984375 85.480469 76.226562 85.539062 76.351562 85.449219 C 76.796875 85.132812 77.160156 84.691406 77.632812 84.429688 C 77.925781 84.269531 78.417969 84.46875 78.703125 84.300781 C 79.175781 84.03125 79.550781 83.597656 79.996094 83.203125 L 86.746094 83.203125 C 87.363281 82.515625 87.96875 81.898438 89.085938 82.035156 C 90.195312 82.167969 91.332031 82.0625 92.402344 82.0625 C 93.015625 81.585938 93.34375 80.898438 94.261719 80.910156 C 97.449219 80.96875 100.640625 80.933594 103.734375 80.933594 C 104.363281 80.367188 104.75 79.675781 105.65625 79.785156 C 106.210938 79.851562 106.792969 79.851562 107.347656 79.785156 C 108.753906 79.625 110.386719 80.445312 111.488281 78.863281 C 111.570312 78.742188 111.800781 78.675781 111.964844 78.667969 C 112.71875 78.648438 113.476562 78.605469 114.226562 78.667969 C 115.636719 78.792969 117.273438 78.0625 118.332031 79.65625 C 119.253906 79.703125 120.179688 79.800781 121.097656 79.769531 C 121.730469 79.75 122.167969 80.007812 122.507812 80.457031 C 122.773438 80.796875 123.050781 80.949219 123.453125 80.925781 C 124.019531 80.898438 124.597656 80.996094 125.144531 80.902344 C 126.230469 80.71875 126.902344 81.285156 127.492188 82.050781 C 128.828125 82.050781 130.140625 82.078125 131.457031 82.035156 C 131.890625 82.019531 132.246094 82.035156 132.421875 82.433594 C 132.886719 83.480469 134.203125 82.832031 134.753906 83.632812 C 135.242188 84.339844 135.984375 84.308594 136.691406 84.425781 C 137.292969 85.234375 138.0625 85.589844 139.09375 85.460938 C 140.195312 85.324219 141.324219 85.652344 142.410156 85.265625 C 142.832031 85.117188 142.945312 84.742188 142.8125 84.3125 C 143.242188 84.175781 143.511719 84.359375 143.792969 84.703125 C 144.128906 85.117188 144.492188 85.59375 145.171875 85.449219 C 145.574219 85.367188 145.835938 85.578125 146.121094 85.902344 C 146.617188 86.464844 147.160156 86.996094 147.722656 87.5 C 147.933594 87.691406 148.199219 87.464844 148.527344 87.121094 C 149.003906 86.613281 149.625 86.726562 149.574219 87.285156 C 149.464844 88.445312 150.300781 88.921875 150.917969 89.574219 C 151.292969 89.976562 151.304688 89.960938 152.445312 89.976562 C 160.574219 98.105469 168.714844 106.234375 176.828125 114.378906 C 177.285156 114.835938 177.777344 114.820312 178.316406 114.917969 C 178.597656 114.96875 178.96875 115.335938 179.023438 115.617188 C 179.125 116.152344 179.078125 116.667969 179.558594 117.109375 C 180.53125 117.996094 181.441406 118.957031 182.359375 119.90625 C 182.464844 120.007812 182.484375 120.265625 182.441406 120.425781 C 182.164062 121.539062 183.765625 121.722656 183.589844 122.785156 C 183.429688 123.730469 184.25 124.164062 184.792969 124.515625 C 185.847656 125.207031 185.625 126.503906 186.367188 127.289062 C 186.886719 127.832031 187.660156 128.269531 187.910156 128.910156 C 188.230469 129.757812 188.339844 130.667969 189.164062 131.222656 C 189.085938 132.246094 189.613281 132.957031 190.363281 133.550781 C 190.113281 134.664062 190.898438 135.238281 191.558594 135.886719 C 192.636719 136.941406 193.691406 138.015625 194.761719 139.085938 C 194.730469 140.328125 195.539062 141.078125 196.363281 141.8125 C 196.453125 141.890625 196.660156 141.945312 196.753906 141.898438 C 196.914062 141.816406 197.132812 141.65625 197.144531 141.515625 C 197.210938 140.457031 197.601562 139.296875 198.304688 138.03125 C 198.144531 137.195312 198.539062 136.628906 199.148438 136.113281 C 199.640625 135.695312 199.410156 135.078125 199.433594 134.539062 C 199.449219 133.984375 199.433594 133.453125 199.945312 133.042969 C 200.214844 132.832031 200.507812 132.488281 200.542969 132.175781 C 200.632812 131.433594 200.574219 130.671875 200.570312 129.917969 C 200.5625 128.8125 200.351562 127.640625 201.550781 126.933594 C 201.601562 126.390625 201.714844 125.84375 201.683594 125.304688 C 201.648438 124.675781 201.898438 124.230469 202.355469 123.882812 C 202.699219 123.621094 202.851562 123.34375 202.84375 122.949219 C 202.820312 122.195312 202.894531 121.433594 202.820312 120.691406 C 202.753906 120.019531 203.132812 119.644531 203.554688 119.292969 C 204.285156 118.675781 203.730469 117.488281 204.726562 116.921875 C 205.507812 116.480469 205.007812 115.546875 205.089844 114.839844 C 205.152344 114.289062 205.101562 113.722656 205.101562 113.164062 C 205.921875 112.5625 206.414062 111.847656 206.25 110.78125 C 206.160156 110.234375 206.210938 109.691406 206.730469 109.28125 C 207 109.066406 207.316406 108.726562 207.339844 108.417969 C 207.410156 107.324219 207.140625 106.144531 208.339844 105.429688 C 208.390625 104.882812 208.511719 104.339844 208.484375 103.796875 C 208.453125 103.175781 208.683594 102.71875 209.144531 102.371094 C 209.488281 102.113281 209.667969 101.832031 209.632812 101.4375 C 209.523438 100.277344 209.597656 99.1875 210.734375 98.5 C 210.5 97.410156 211.261719 96.8125 211.894531 96.152344 C 211.734375 95.320312 212.09375 94.730469 212.726562 94.230469 C 213.332031 93.75 212.777344 92.800781 213.515625 92.285156 C 214.121094 91.859375 214.605469 91.253906 215.125 90.703125 C 215.234375 90.585938 215.316406 90.359375 215.285156 90.214844 C 215.003906 89.097656 216.464844 88.824219 216.417969 87.851562 C 216.394531 87.433594 216.449219 87.113281 216.730469 86.839844 C 217.667969 85.917969 218.585938 84.964844 219.535156 84.046875 C 220.097656 83.507812 219.558594 82.582031 220.320312 82.09375 C 220.78125 81.792969 221.128906 81.316406 221.53125 80.910156 C 222.066406 80.378906 222.59375 79.847656 223.128906 79.3125 C 223.003906 77.511719 224.597656 76.863281 225.539062 75.792969 C 226.402344 74.808594 227.378906 73.910156 228.289062 72.992188 L 230.582031 72.992188 C 231.515625 72.054688 232.453125 71.121094 233.386719 70.1875 C 233.015625 69.78125 232.621094 69.394531 232.285156 68.960938 C 232.078125 68.699219 232.429688 67.578125 232.714844 67.457031 C 233.511719 67.121094 234.371094 67.363281 234.519531 68.054688 C 234.625 68.582031 234.464844 69.226562 235.066406 69.492188 C 235.207031 69.554688 235.640625 69.125 235.835938 68.847656 C 236.257812 68.25 236.859375 68.558594 237.378906 68.445312 C 237.535156 68.40625 237.683594 68.210938 237.765625 68.054688 C 237.8125 67.960938 237.765625 67.769531 237.695312 67.664062 C 237.472656 67.328125 237.128906 67.238281 236.703125 67.328125 C 236.304688 67.410156 235.976562 67.238281 235.773438 66.859375 C 235.5625 66.464844 235.671875 65.640625 235.980469 65.328125 C 236.246094 65.0625 236.542969 64.820312 236.777344 64.523438 C 237.070312 64.144531 237.320312 63.988281 237.582031 64.144531 C 237.945312 64.363281 237.953125 64.699219 237.964844 65.125 C 237.980469 65.859375 238.902344 66.507812 239.449219 66.1875 C 239.917969 65.910156 240.253906 65.414062 240.726562 65.152344 C 241.175781 64.910156 241.8125 65.242188 242.25 64.738281 C 242.75 64.171875 243.347656 63.695312 243.835938 63.121094 C 244.359375 62.5 245.339844 63.136719 245.78125 62.332031 C 246.203125 61.574219 247.042969 61.757812 247.703125 61.519531 C 248.117188 61.367188 248.246094 60.996094 248.132812 60.578125 C 248.019531 60.148438 248.132812 59.816406 248.507812 59.605469 C 248.761719 59.464844 249.046875 59.605469 249.300781 60.011719 C 249.582031 60.453125 249.835938 60.542969 250.105469 60.269531 C 250.371094 60 250.621094 59.707031 250.910156 59.472656 C 251.273438 59.183594 251.464844 58.917969 251.351562 58.667969 C 251.164062 58.265625 250.820312 58.144531 250.390625 58.273438 C 249.960938 58.40625 249.628906 58.273438 249.441406 57.863281 C 249.394531 57.765625 249.441406 57.5625 249.519531 57.476562 C 250.257812 56.65625 250.992188 55.820312 252.246094 55.871094 C 252.839844 55.03125 253.652344 54.785156 254.664062 54.855469 C 255.378906 54.902344 256.355469 55.222656 256.796875 54.640625 C 257.824219 53.285156 259.179688 53.835938 260.414062 53.773438 C 261.042969 53.742188 261.480469 53.515625 261.820312 53.066406 C 262.085938 52.726562 262.359375 52.585938 262.769531 52.601562 C 263.523438 52.632812 264.28125 52.570312 265.035156 52.628906 C 265.464844 52.660156 265.726562 52.523438 266.042969 52.292969 C 267.195312 51.449219 267.214844 51.460938 268.527344 51.480469 C 268.398438 51.90625 268.507812 52.324219 268.917969 52.414062 C 270.527344 52.746094 272.15625 52.679688 273.777344 52.460938 C 275.40625 50.546875 277.585938 51.84375 279.484375 51.511719 C 280.382812 51.351562 281.332031 51.476562 282.257812 51.492188 C 282.640625 51.496094 283.03125 51.382812 283.125 50.988281 C 283.160156 50.832031 282.710938 50.382812 282.480469 50.378906 C 278.960938 50.339844 275.441406 50.351562 271.921875 50.351562 C 271.789062 49.921875 271.921875 49.59375 272.324219 49.386719 C 273.164062 48.953125 274.21875 49.601562 274.96875 48.96875 C 275.550781 48.472656 276.027344 48.054688 276.878906 48.070312 C 280.460938 48.121094 284.046875 48.117188 287.636719 48.078125 C 288.792969 48.070312 289.886719 48.046875 290.574219 49.195312 C 291.667969 48.984375 292.308594 49.679688 292.898438 50.398438 C 293.511719 51.152344 294.242188 51.621094 295.238281 51.59375 C 296.101562 52.285156 296.601562 53.566406 297.746094 53.703125 C 299.082031 53.855469 299.542969 54.925781 300.363281 55.613281 C 301.085938 56.214844 301.703125 56.933594 302.378906 57.601562 C 303.183594 58.394531 303.996094 59.179688 304.746094 59.90625 C 304.824219 60.539062 304.59375 61.105469 305.164062 61.550781 C 305.757812 62.011719 306.285156 62.566406 306.757812 63.148438 C 306.960938 63.398438 307.035156 63.828125 307.007812 64.160156 C 306.925781 65.152344 307.195312 65.910156 307.949219 66.632812 C 308.414062 67.078125 308.03125 68.082031 308.777344 68.53125 C 309.34375 68.875 309.15625 69.507812 309.332031 70 C 309.511719 70.484375 310.210938 70.796875 310.335938 71.273438 C 310.523438 71.972656 310.414062 72.757812 310.421875 73.503906 C 310.429688 73.882812 310.421875 74.257812 310.421875 74.664062 C 311.058594 75.300781 311.699219 75.875 311.589844 77 C 311.445312 78.488281 311.554688 80.007812 311.554688 81.46875 C 312.011719 82.074219 312.738281 82.386719 312.710938 83.316406 C 312.660156 84.996094 312.75 86.683594 312.78125 88.371094 C 314.832031 90.214844 313.414062 92.621094 313.8125 94.734375 C 314.109375 96.308594 313.195312 98.121094 314.773438 99.4375 C 314.886719 99.535156 314.945312 99.761719 314.945312 99.921875 C 314.953125 104.640625 314.949219 109.351562 314.949219 114.070312 C 314.304688 114.941406 313.589844 115.742188 313.789062 117.003906 C 313.933594 117.921875 313.828125 118.886719 313.800781 119.828125 C 313.800781 119.976562 313.65625 120.179688 313.515625 120.265625 C 312.550781 120.871094 312.609375 121.820312 312.695312 122.753906 C 312.738281 123.191406 312.640625 123.464844 312.332031 123.753906 C 311.945312 124.117188 311.460938 124.410156 311.527344 125.121094 C 311.617188 126.050781 311.550781 127 311.550781 127.945312 C 310.75 128.542969 310.230469 129.238281 310.402344 130.3125 C 310.492188 130.851562 310.46875 131.414062 309.925781 131.8125 C 309.457031 132.15625 309.253906 132.617188 309.265625 133.242188 C 309.28125 134.160156 309.175781 135.082031 309.121094 136.003906 C 307.984375 136.558594 308.441406 138.058594 307.515625 138.734375 C 306.976562 139.128906 307.160156 139.730469 306.976562 140.210938 C 306.796875 140.695312 306.207031 141.011719 305.945312 141.484375 C 305.78125 141.773438 305.820312 142.230469 305.898438 142.585938 C 306.144531 143.699219 305.378906 144.28125 304.734375 144.96875 L 304.734375 148.300781 C 304.273438 148.886719 303.507812 149.214844 303.601562 150.140625 C 303.6875 150.976562 302.507812 151.203125 302.519531 151.933594 C 302.535156 152.8125 301.953125 153.21875 301.542969 153.816406 C 301.15625 154.378906 301.472656 155.300781 300.710938 155.722656 C 299.910156 156.164062 300.507812 157.132812 299.917969 157.664062 C 299.355469 158.167969 298.875 158.757812 298.304688 159.246094 C 297.777344 159.695312 298.03125 160.273438 297.914062 160.789062 C 296.765625 161.339844 297.09375 162.78125 296.300781 163.507812 C 295.464844 164.273438 295.847656 165.699219 294.710938 166.253906 C 294.617188 167.1875 294.34375 168.03125 293.511719 168.585938 C 293.476562 169.328125 293.4375 170.070312 293.398438 170.902344 C 293.074219 171.242188 292.691406 171.648438 292.3125 172.054688 C 291.929688 172.457031 291.550781 172.867188 291.164062 173.277344 C 291.480469 174.398438 290.359375 174.839844 290.070312 175.648438 C 289.894531 176.144531 289.992188 176.6875 289.523438 177.136719 C 288.15625 178.433594 286.777344 179.734375 285.535156 181.140625 C 284.703125 182.082031 283.375 182.585938 283.199219 184.136719 C 283.066406 185.3125 281.78125 185.789062 281.105469 186.65625 C 281.023438 188.574219 279.324219 189.339844 278.296875 190.585938 C 277.710938 191.296875 277.0625 191.960938 276.445312 192.652344 C 276.65625 193.796875 275.707031 194.265625 275.101562 194.917969 C 274.457031 195.609375 273.769531 196.257812 273.105469 196.921875 C 273.359375 198.292969 272.238281 198.867188 271.496094 199.648438 C 270.589844 200.609375 269.632812 201.523438 268.699219 202.457031 C 267.898438 203.253906 267.089844 204.050781 266.300781 204.859375 C 265.523438 205.664062 264.757812 206.484375 263.992188 207.292969 C 264.203125 208.9375 262.609375 209.363281 261.898438 210.386719 C 261.867188 212.085938 260.441406 212.84375 259.496094 213.921875 C 259.714844 215.75 257.84375 216.234375 257.195312 217.5 C 257.507812 218.613281 256.371094 219.039062 256.066406 219.859375 C 256.40625 221.117188 254.582031 221.53125 254.933594 222.789062 C 254.320312 223.480469 253.761719 224.226562 253.074219 224.839844 C 252.546875 225.3125 252.847656 225.910156 252.628906 226.363281 C 252.394531 226.847656 251.871094 227.179688 251.492188 227.59375 C 251.117188 228 250.765625 228.425781 250.402344 228.839844 C 250.714844 229.957031 249.539062 230.367188 249.273438 231.203125 C 249.167969 231.539062 249.257812 231.992188 249.066406 232.242188 C 248.605469 232.828125 248.085938 233.414062 247.472656 233.835938 C 246.726562 234.347656 247.332031 235.308594 246.683594 235.785156 C 246.027344 236.273438 245.730469 236.886719 245.847656 237.71875 C 245.863281 237.832031 245.609375 237.980469 245.484375 238.121094 C 244.640625 239.050781 243.429688 239.722656 243.445312 241.257812 C 243.445312 241.523438 242.925781 241.773438 242.6875 242.0625 C 242.230469 242.621094 241.386719 242.941406 241.363281 243.765625 C 241.347656 244.394531 241.09375 244.796875 240.683594 245.191406 C 240.140625 245.714844 239.613281 246.257812 239.082031 246.792969 C 239.34375 248.632812 237.378906 249.066406 236.808594 250.378906 C 237 251.769531 235.820312 252.292969 235.027344 252.984375 C 234.699219 253.269531 233.746094 252.800781 233.582031 253.464844 C 233.367188 254.386719 233.152344 255.222656 232.34375 255.785156 C 232.46875 256.835938 231.859375 257.496094 231.148438 258.128906 C 230.734375 258.496094 230.390625 258.9375 230.011719 259.347656 C 230.453125 260.640625 228.746094 261.050781 228.84375 262.277344 C 228.921875 263.183594 227.449219 263.515625 227.734375 264.636719 C 227.765625 264.773438 227.648438 264.996094 227.535156 265.109375 C 225.542969 267.117188 223.554688 269.132812 221.515625 271.09375 C 221.316406 271.285156 220.734375 271.246094 220.429688 271.105469 C 220.15625 270.976562 219.859375 270.558594 219.847656 270.265625 C 219.816406 269.148438 219.957031 268.03125 218.820312 267.269531 C 218.5 267.050781 218.671875 266.066406 218.972656 265.757812 C 219.628906 265.089844 220.304688 264.429688 220.9375 263.738281 C 221.03125 263.636719 220.976562 263.371094 220.949219 263.183594 C 220.824219 262.265625 221.898438 262.078125 222.058594 261.382812 C 222.183594 260.859375 222.027344 260.292969 222.5625 259.878906 C 222.839844 259.664062 223.128906 259.335938 223.191406 259.019531 C 223.324219 258.304688 223.207031 257.527344 223.414062 256.839844 C 223.558594 256.367188 224.328125 256.140625 224.328125 255.53125 C 224.328125 254.921875 224.585938 254.519531 224.960938 254.085938 C 225.652344 253.273438 226.921875 252.808594 226.632812 251.375 C 226.613281 251.265625 226.828125 251.0625 226.980469 250.96875 C 227.578125 250.597656 228.453125 250.921875 228.917969 250.164062 C 229.25 249.613281 229.835938 249.691406 230.378906 249.597656 C 231.082031 249.480469 231.429688 248.421875 231.035156 247.835938 C 230.828125 247.527344 230.480469 247.316406 230.25 247.019531 C 229.882812 246.542969 229.945312 246.007812 230.179688 245.492188 C 230.371094 245.082031 230.707031 244.957031 231.136719 245.089844 C 231.015625 245.503906 231.132812 245.832031 231.511719 246.023438 C 231.90625 246.226562 232.160156 245.902344 232.269531 245.089844 C 232.691406 245.214844 233.011719 245.089844 233.214844 244.710938 C 233.480469 244.210938 233.480469 243.707031 233.214844 243.210938 C 233.011719 242.824219 232.691406 242.699219 232.269531 242.832031 Z M 65.257812 131.890625 C 65.410156 131.945312 65.714844 131.953125 65.742188 131.890625 C 65.886719 131.527344 65.742188 131.253906 65.457031 131.015625 C 65.1875 130.785156 64.957031 130.816406 64.75 131.238281 C 64.714844 131.308594 64.8125 131.488281 64.890625 131.585938 C 64.996094 131.710938 65.121094 131.839844 66.773438 132.585938 C 66.640625 132.34375 66.488281 132.035156 66.261719 131.921875 C 65.789062 131.6875 65.554688 131.921875 65.785156 132.398438 C 65.898438 132.628906 66.199219 132.777344 66.449219 132.914062 C 66.488281 132.933594 66.796875 132.628906 65.265625 131.898438 Z M 227.671875 239.96875 C 227.722656 239.820312 227.734375 239.511719 227.671875 239.488281 C 227.308594 239.34375 227.03125 239.488281 226.792969 239.773438 C 226.566406 240.042969 226.597656 240.269531 227.015625 240.480469 C 227.089844 240.515625 227.265625 240.417969 227.363281 240.339844 C 227.488281 240.234375 227.617188 240.109375 228.367188 238.460938 C 228.121094 238.59375 227.816406 238.746094 227.703125 238.972656 C 227.46875 239.445312 227.703125 239.679688 228.179688 239.453125 C 228.40625 239.335938 228.558594 239.035156 228.695312 238.785156 C 228.714844 238.746094 228.40625 238.4375 227.675781 239.96875 Z M 99.601562 197.125 C 99.46875 196.882812 99.316406 196.574219 99.089844 196.460938 C 98.617188 196.226562 98.382812 196.460938 98.609375 196.9375 C 98.726562 197.167969 99.027344 197.316406 99.273438 197.453125 C 99.316406 197.472656 99.621094 197.167969 98.59375 196.445312 C 98.59375 195.9375 98.6875 195.402344 98.570312 194.917969 C 98.449219 194.4375 98.082031 194.058594 97.464844 194.183594 C 97.464844 193.1875 97.195312 192.355469 96.664062 191.683594 C 96.550781 191.542969 96.363281 191.410156 96.34375 191.257812 C 96.28125 190.71875 96.457031 190.121094 95.863281 189.757812 C 95.128906 189.308594 95.230469 188.511719 95.066406 187.828125 C 93.933594 187.265625 94.300781 185.84375 93.476562 185.09375 C 92.667969 184.359375 92.949219 183.011719 91.902344 182.324219 C 91.5625 182.101562 91.914062 181.320312 91.492188 180.824219 C 90.644531 179.824219 90.679688 179.792969 90.667969 178.914062 C 90.65625 177.945312 90.699219 177.902344 89.863281 176.996094 C 89.414062 176.5 89.769531 175.800781 89.449219 175.480469 C 88.761719 174.800781 88.476562 174.042969 88.21875 173.132812 C 88.046875 172.519531 87.242188 172.164062 87.226562 171.273438 C 87.210938 170.398438 85.824219 170.035156 86.136719 168.917969 C 85.785156 168.117188 84.703125 167.683594 84.984375 166.554688 C 85.011719 166.441406 84.792969 166.269531 84.6875 166.125 C 84.152344 165.394531 83.878906 164.753906 83.867188 164.203125 C 83.851562 163.191406 83.898438 163.152344 83.074219 162.285156 C 82.605469 161.789062 82.910156 161.199219 82.667969 160.746094 C 82.421875 160.273438 81.824219 159.957031 81.648438 159.476562 C 81.46875 158.988281 81.664062 158.355469 81.097656 158.007812 C 80.347656 157.550781 80.675781 156.640625 80.277344 156.089844 C 79.84375 155.503906 79.296875 155.078125 79.304688 154.207031 C 79.316406 153.480469 78.136719 153.261719 78.222656 152.417969 C 78.3125 151.492188 77.546875 151.164062 77.105469 150.609375 C 77.324219 149.515625 76.585938 148.921875 75.910156 148.273438 C 75.515625 147.894531 75.175781 147.453125 74.808594 147.039062 C 75.054688 145.632812 73.757812 145.195312 73.097656 144.363281 C 73.023438 144.273438 72.734375 144.355469 72.050781 144.339844 C 72.199219 144.390625 72.503906 144.402344 72.53125 144.339844 C 72.675781 143.976562 72.53125 143.699219 72.246094 143.460938 C 71.976562 143.234375 71.746094 143.265625 71.539062 143.683594 C 71.503906 143.757812 71.601562 143.933594 71.679688 144.03125 C 71.785156 144.15625 71.910156 144.289062 72.550781 144.347656 C 72.550781 144.726562 72.605469 145.113281 72.535156 145.476562 C 72.460938 145.917969 72.59375 146.175781 72.9375 146.457031 C 73.351562 146.800781 73.78125 147.152344 73.695312 147.835938 C 73.574219 148.777344 73.597656 149.695312 74.535156 150.3125 C 74.847656 150.515625 74.847656 150.90625 74.824219 151.320312 C 74.785156 152.074219 74.816406 152.828125 74.808594 153.578125 C 74.808594 153.957031 74.980469 154.257812 75.335938 154.492188 C 76.078125 154.996094 75.972656 155.769531 75.9375 156.5 C 75.90625 157.09375 76.070312 157.554688 76.519531 157.964844 C 76.765625 158.195312 77.046875 158.558594 77.046875 158.859375 C 77.046875 159.988281 77.011719 161.054688 78.097656 161.851562 C 78.445312 162.109375 78.003906 162.949219 78.527344 163.34375 C 79.1875 163.835938 79.496094 164.449219 79.335938 165.269531 C 79.714844 165.679688 80.089844 166.089844 80.46875 166.492188 C 80.308594 167.328125 80.675781 167.917969 81.308594 168.410156 C 81.617188 168.644531 81.65625 168.996094 81.605469 169.417969 C 81.480469 170.382812 81.664062 171.195312 82.476562 171.902344 C 82.804688 172.1875 82.648438 172.980469 82.9375 173.371094 C 83.375 173.957031 83.835938 174.410156 83.921875 175.25 C 84.003906 176.082031 85.3125 176.496094 85 177.613281 C 85.367188 178.023438 85.726562 178.449219 86.109375 178.847656 C 86.628906 179.394531 87.097656 180.035156 87.726562 180.421875 C 88.664062 180.996094 88.089844 182.203125 88.898438 182.78125 C 89.824219 183.445312 89.367188 184.941406 90.492188 185.519531 C 90.601562 185.574219 90.679688 185.851562 90.652344 186 C 90.402344 187.230469 92.210938 187.644531 91.796875 188.921875 C 92.164062 189.339844 92.511719 189.769531 92.902344 190.160156 C 94.222656 191.5 95.558594 192.832031 96.90625 194.144531 C 97.007812 194.238281 97.269531 194.15625 97.464844 194.15625 C 97.464844 194.664062 97.371094 195.199219 97.488281 195.683594 C 97.609375 196.164062 97.976562 196.542969 99.601562 197.105469 Z M 79.511719 100.203125 C 79.191406 100.277344 78.863281 100.332031 78.558594 100.445312 C 78.429688 100.492188 78.253906 100.765625 78.273438 100.792969 C 78.496094 101.0625 78.753906 101.300781 79.003906 101.554688 C 79.125 101.679688 79.242188 101.804688 79.351562 101.941406 C 79.90625 102.621094 79.996094 102.636719 80.265625 102.121094 C 80.785156 101.140625 80.4375 100.253906 79.351562 103.523438 C 79.351562 103.347656 79.3125 103.160156 79.359375 103 C 79.511719 102.464844 79.347656 102.277344 78.828125 102.480469 C 78.675781 102.539062 78.546875 102.6875 78.445312 102.824219 C 78.34375 102.945312 78.257812 103.101562 78.226562 103.253906 C 78.101562 103.804688 78.371094 104.566406 78.6875 104.640625 C 79.011719 104.710938 79.328125 104.183594 79.519531 100.207031 Z M 304.683594 132.824219 C 304.671875 132.660156 304.691406 131.9375 304.558594 131.246094 C 304.484375 130.863281 304.070312 130.78125 303.691406 130.765625 C 303.089844 130.746094 302.429688 131.082031 302.417969 131.460938 C 302.402344 132 302.417969 132.546875 302.417969 133.085938 C 302.417969 133.460938 302.859375 134.070312 303.738281 134.917969 C 303.867188 135.042969 303.992188 135.171875 304.121094 135.296875 C 304.308594 135.011719 304.578125 134.75 304.667969 134.441406 C 304.761719 134.109375 304.6875 133.722656 302.414062 134.667969 C 302.464844 134.519531 302.476562 134.210938 302.414062 134.1875 C 302.050781 134.039062 301.777344 134.1875 301.535156 134.472656 C 301.308594 134.742188 301.339844 134.96875 301.761719 135.175781 C 301.832031 135.214844 302.007812 135.113281 302.109375 135.039062 C 302.230469 134.933594 302.363281 134.808594 304.691406 132.816406 Z M 298.527344 144.289062 C 299.050781 143.761719 299.570312 143.242188 300.09375 142.71875 C 301.078125 141.734375 301.230469 141.734375 301.246094 140.996094 C 301.261719 140.078125 302.050781 139.839844 302.402344 139.242188 C 302.488281 139.105469 302.414062 138.878906 302.414062 138.695312 C 300.917969 138.804688 301.527344 137.441406 301.085938 136.8125 C 300.988281 136.671875 300.816406 136.460938 300.699219 136.476562 C 300.554688 136.496094 300.382812 136.6875 300.316406 136.84375 C 300.035156 137.464844 300.273438 138.285156 299.542969 138.742188 C 299.007812 139.074219 298.945312 139.636719 299.023438 140.179688 C 299.175781 141.195312 298.765625 141.90625 298.03125 142.558594 C 297.835938 142.734375 297.832031 143.257812 297.914062 143.582031 C 297.980469 143.851562 298.308594 144.054688 303.078125 136.527344 C 302.953125 136.589844 302.808594 136.625 302.710938 136.707031 C 302.238281 137.113281 302.511719 137.679688 302.402344 138.160156 C 302.277344 138.703125 302.417969 138.882812 302.9375 138.679688 C 303.089844 138.625 303.238281 138.484375 303.316406 138.339844 C 303.71875 137.632812 303.570312 136.628906 298.519531 144.277344 Z M 289.835938 165.425781 C 289.703125 165.179688 289.550781 164.875 289.324219 164.761719 C 288.851562 164.527344 288.617188 164.761719 288.84375 165.238281 C 288.960938 165.464844 289.261719 165.617188 289.507812 165.75 C 289.550781 165.773438 289.855469 165.464844 288.828125 164.746094 C 288.828125 163.613281 288.828125 162.480469 289.507812 160.34375 C 289.265625 160.476562 288.960938 160.628906 288.84375 160.855469 C 288.613281 161.328125 288.84375 161.5625 289.324219 161.335938 C 289.550781 161.21875 289.703125 160.917969 289.835938 160.667969 C 289.855469 160.628906 289.550781 160.320312 288.828125 161.347656 C 288.402344 161.21875 288.003906 161.328125 287.894531 161.742188 C 287.660156 162.605469 287.53125 163.460938 286.71875 164.054688 C 285.792969 164.730469 285.125 165.582031 285.433594 166.855469 C 285.535156 167.265625 285.433594 167.59375 285.160156 167.859375 C 284.628906 168.378906 284.171875 169 283.566406 169.410156 C 282.8125 169.917969 283.566406 170.902344 282.808594 171.347656 C 281.8125 171.929688 282.035156 172.910156 282.023438 174.3125 C 282.078125 174.160156 282.085938 173.855469 282.023438 173.828125 C 281.660156 173.683594 281.386719 173.828125 281.148438 174.113281 C 280.917969 174.382812 280.949219 174.613281 281.371094 174.820312 C 281.441406 174.855469 281.621094 174.757812 281.71875 174.679688 C 281.84375 174.574219 281.972656 174.453125 282.035156 173.808594 C 283.503906 173.019531 284.738281 171.867188 285.429688 170.640625 C 285.273438 169.785156 286 169.421875 286.382812 168.851562 C 286.746094 168.300781 286.414062 167.421875 287.148438 166.992188 C 287.890625 166.5625 287.53125 165.699219 287.886719 165.117188 C 288.109375 164.753906 288.410156 164.625 289.832031 165.429688 Z M 202.183594 151.1875 C 201.414062 151.710938 201.714844 152.507812 201.628906 153.21875 C 201.550781 153.855469 201.941406 154.210938 202.277344 154.660156 C 202.820312 155.375 203.882812 155.671875 203.914062 156.808594 C 203.949219 158.117188 205.289062 158.472656 205.894531 159.378906 C 205.992188 159.523438 206.113281 159.667969 206.15625 159.832031 C 206.203125 160.011719 206.179688 160.210938 206.160156 160.394531 C 206.050781 161.371094 206.242188 162.191406 207.074219 162.867188 C 207.484375 163.199219 207.386719 163.957031 207.105469 164.375 C 206.867188 164.734375 206.558594 164.796875 206.125 164.761719 C 205.195312 164.675781 204.261719 164.609375 203.621094 165.566406 C 203.371094 165.9375 202.339844 166 202.105469 165.777344 C 201.566406 165.253906 200.957031 164.769531 200.523438 164.164062 C 200.003906 163.445312 199.148438 163.808594 198.570312 163.378906 C 198.035156 162.980469 198.429688 162.273438 198.144531 161.867188 C 197.714844 161.261719 197.167969 160.695312 196.558594 160.269531 C 195.695312 159.671875 196.21875 158.527344 195.394531 157.886719 C 194.5 157.203125 193.796875 156.292969 192.964844 155.519531 C 192.273438 154.875 192.761719 153.753906 191.796875 153.136719 C 190.867188 152.539062 190.160156 151.585938 189.371094 150.777344 C 189.257812 150.660156 189.164062 150.449219 189.1875 150.296875 C 189.335938 149.144531 188.4375 148.570312 187.738281 148.09375 C 186.6875 147.386719 187.214844 145.96875 186.179688 145.292969 C 185.5625 144.890625 185.085938 144.261719 184.570312 143.714844 C 184.199219 143.316406 183.863281 142.878906 183.511719 142.460938 C 183.820312 141.34375 182.5 140.980469 182.40625 140.097656 C 182.34375 139.507812 182.234375 139.011719 181.757812 138.664062 C 181.226562 138.277344 181.078125 137.679688 181.269531 137.1875 C 181.871094 135.648438 179.609375 135.128906 180.113281 133.683594 C 179.324219 132.503906 177.609375 131.9375 177.746094 130.125 C 177.753906 130.003906 177.496094 129.863281 177.367188 129.726562 C 176.703125 129.0625 176.03125 128.394531 175.367188 127.726562 C 174.570312 126.929688 173.757812 126.136719 172.96875 125.324219 C 172.320312 124.660156 171.691406 123.96875 171.058594 123.289062 C 171.3125 121.878906 170.050781 121.40625 169.347656 120.613281 C 168.945312 120.15625 168.878906 119.6875 168.761719 119.144531 C 168.578125 118.292969 167.359375 117.898438 167.644531 116.769531 C 167.675781 116.65625 167.472656 116.476562 167.363281 116.335938 C 166.609375 115.347656 165.140625 114.8125 165.363281 113.199219 C 164.296875 112.128906 163.128906 111.144531 162.195312 109.96875 C 161.441406 109.027344 160.101562 109.472656 159.390625 108.421875 C 158.765625 107.503906 157.859375 106.761719 157.007812 106.019531 C 156.785156 105.824219 156.269531 106 155.953125 105.855469 C 155.160156 105.492188 154.703125 104.421875 153.585938 104.738281 C 153.175781 104.359375 152.773438 103.976562 152.363281 103.597656 C 151.957031 103.21875 151.550781 102.832031 151.132812 102.4375 L 148.9375 102.4375 C 148.363281 101.867188 147.847656 101.316406 147.289062 100.808594 C 147.03125 100.570312 146.667969 100.207031 146.414062 100.246094 C 145.167969 100.464844 144.757812 98.6875 143.480469 99.078125 C 142.660156 98.328125 141.851562 97.558594 141.015625 96.828125 C 140.90625 96.734375 140.640625 96.78125 140.460938 96.820312 C 140.027344 96.921875 139.765625 96.753906 139.484375 96.40625 C 139.140625 95.980469 138.765625 95.597656 138.09375 95.664062 C 137.109375 95.761719 136.855469 94.289062 135.726562 94.511719 C 135.472656 94.5625 135.09375 94.222656 134.835938 93.988281 C 134.277344 93.480469 133.761719 92.929688 133.226562 92.394531 C 132.242188 92.394531 131.550781 91.90625 130.863281 91.226562 C 130.539062 90.910156 129.839844 91.277344 129.34375 90.8125 C 128.472656 89.984375 128.433594 90.03125 127.417969 90.015625 C 127.234375 90.015625 127.035156 89.984375 126.855469 90.023438 C 126.429688 90.117188 126.132812 89.976562 125.886719 89.597656 C 125.421875 88.871094 124.699219 88.824219 123.925781 88.875 C 123.382812 88.910156 122.804688 88.964844 122.425781 88.398438 C 122.324219 88.242188 122.175781 88.113281 122.027344 87.996094 C 121.886719 87.894531 121.71875 87.765625 121.566406 87.757812 C 120.8125 87.734375 120.054688 87.75 119.300781 87.75 C 118.355469 87.75 117.386719 87.886719 116.484375 87.703125 C 115.832031 87.566406 115.277344 86.996094 114.675781 86.617188 C 112.226562 86.617188 109.769531 86.617188 107.320312 86.628906 C 107.160156 86.628906 106.9375 86.71875 106.855469 86.84375 C 105.941406 88.292969 104.492188 87.65625 103.261719 87.734375 C 101.949219 87.816406 100.625 87.742188 99.300781 87.765625 C 99.152344 87.765625 98.933594 87.902344 98.863281 88.039062 C 98.300781 89.191406 96.808594 88.609375 96.085938 89.613281 C 95.4375 90.519531 94.546875 91.261719 93.699219 92.015625 C 93.464844 92.222656 93 92.332031 92.691406 92.253906 C 91.417969 91.9375 90.734375 93.046875 89.746094 93.363281 C 89.214844 93.53125 88.726562 93.613281 88.3125 94.03125 C 86.457031 95.910156 84.585938 97.765625 82.722656 99.628906 C 82.636719 100.160156 82.929688 100.757812 82.328125 101.175781 C 82.03125 101.386719 81.695312 101.679688 81.609375 101.996094 C 81.476562 102.511719 81.710938 103.128906 81.117188 103.492188 C 80.378906 103.945312 80.6875 104.914062 80.269531 105.386719 C 79.613281 106.132812 79.285156 106.824219 79.289062 107.84375 C 79.335938 114.253906 79.316406 120.667969 79.3125 127.078125 C 79.3125 128.191406 79.113281 129.347656 80.292969 130.078125 C 80.402344 130.148438 80.441406 130.40625 80.4375 130.574219 C 80.386719 131.710938 80.386719 132.769531 81.46875 133.566406 C 81.8125 133.824219 81.464844 134.585938 81.878906 135.074219 C 82.730469 136.074219 82.816406 136.128906 82.675781 136.984375 C 82.492188 138.117188 83.242188 138.664062 83.835938 139.320312 C 83.835938 140.289062 83.859375 141.234375 83.828125 142.179688 C 83.8125 142.589844 83.921875 142.890625 84.292969 143.125 C 85.296875 143.757812 84.761719 145.269531 85.878906 145.886719 C 86.078125 145.996094 86.074219 146.546875 86.09375 146.898438 C 86.125 147.464844 86.078125 148.03125 86.109375 148.59375 C 86.132812 148.949219 86.105469 149.457031 86.3125 149.625 C 87.144531 150.28125 87.289062 151.109375 87.253906 152.089844 C 87.222656 152.976562 86.929688 153.980469 87.886719 154.648438 C 88.695312 155.214844 88.058594 156.515625 89.085938 156.988281 C 89.246094 157.0625 89.484375 157.265625 89.46875 157.378906 C 89.371094 158.195312 89.597656 158.84375 90.289062 159.316406 C 90.632812 159.546875 90.683594 159.875 90.644531 160.304688 C 90.542969 161.246094 90.542969 162.167969 91.484375 162.789062 C 91.796875 162.988281 91.824219 163.378906 91.769531 163.800781 C 91.640625 164.769531 91.824219 165.605469 92.675781 166.261719 C 93.269531 166.710938 93.773438 167.296875 94.285156 167.847656 C 94.648438 168.238281 95.253906 168.503906 95.160156 169.175781 C 95.027344 170.113281 96.125 170.367188 96.226562 170.984375 C 96.351562 171.757812 96.40625 172.433594 97.09375 172.90625 C 97.78125 173.371094 97.125 174.347656 97.878906 174.863281 C 98.492188 175.28125 99.003906 175.867188 99.472656 176.453125 C 99.667969 176.703125 99.605469 177.140625 99.695312 177.488281 C 99.917969 178.34375 101.132812 178.734375 100.820312 179.851562 C 101.386719 181.167969 103.355469 181.59375 103.089844 183.4375 C 104.195312 184.691406 105.898438 185.550781 106.414062 187.148438 C 106.976562 188.914062 108.515625 189.671875 109.496094 190.96875 C 109.609375 191.117188 109.878906 191.257812 109.863281 191.375 C 109.746094 192.199219 110.050781 192.789062 110.683594 193.316406 C 111.535156 194.015625 112.335938 194.789062 112.292969 196.035156 C 113.191406 196.558594 113.097656 197.59375 113.527344 198.351562 C 114.136719 199.425781 115.746094 199.859375 115.546875 201.480469 C 116.0625 202.019531 116.585938 202.554688 117.09375 203.105469 C 117.71875 203.785156 118.332031 204.480469 118.949219 205.164062 C 118.78125 206.03125 119.34375 206.53125 119.898438 207.035156 C 119.933594 208.234375 120.644531 209.042969 121.496094 209.769531 C 121.640625 209.890625 121.765625 210.035156 121.898438 210.167969 C 122.03125 210.304688 122.207031 210.414062 122.285156 210.574219 C 122.359375 210.730469 122.355469 210.9375 122.339844 211.113281 C 122.238281 212.28125 123.957031 212.722656 123.496094 214.03125 C 124.160156 214.695312 124.855469 215.34375 125.488281 216.039062 C 126.089844 216.699219 126.785156 217.1875 126.949219 218.28125 C 127.101562 219.363281 128.355469 219.945312 129.101562 220.757812 C 129.734375 221.453125 130.414062 222.113281 131.101562 222.757812 C 131.488281 223.121094 131.753906 223.722656 132.433594 223.628906 C 133.367188 223.5 133.710938 224.289062 134.21875 224.777344 C 135.714844 226.214844 137.164062 227.699219 138.632812 229.167969 C 138.992188 229.210938 139.355469 229.296875 139.710938 229.289062 C 140.46875 229.261719 141.113281 229.328125 141.714844 229.953125 C 144.472656 232.792969 147.289062 235.574219 150.074219 238.367188 C 150.484375 238.367188 150.992188 238.210938 151.210938 238.390625 C 152.066406 239.125 152.796875 240.007812 153.644531 240.753906 C 154.46875 241.476562 154.96875 242.710938 156.15625 242.847656 C 157.480469 242.992188 157.957031 244.078125 158.742188 244.792969 C 159.253906 245.257812 159.867188 244.933594 160.273438 245.199219 C 160.890625 245.601562 161.363281 246.230469 161.898438 246.765625 C 162.433594 247.300781 162.925781 247.882812 163.515625 248.34375 C 163.761719 248.535156 164.21875 248.441406 164.554688 248.550781 C 165.390625 248.816406 165.796875 249.972656 166.921875 249.691406 C 167.035156 249.660156 167.21875 249.871094 167.363281 249.96875 C 168.1875 250.53125 168.824219 250.8125 169.277344 250.808594 C 170.03125 250.804688 170.789062 250.808594 171.566406 250.808594 C 172.203125 251.441406 172.78125 252.164062 173.902344 251.960938 C 174.597656 251.835938 174.644531 251.902344 175.808594 252.78125 C 176.332031 253.175781 176.859375 253.039062 177.390625 253.066406 C 177.941406 253.097656 178.496094 253.015625 178.890625 253.558594 C 179.230469 254.027344 179.691406 254.300781 180.316406 254.207031 C 181.300781 254.0625 182.140625 254.300781 182.757812 255.160156 C 182.84375 255.273438 183.09375 255.359375 183.238281 255.328125 C 184.472656 255.070312 184.886719 256.882812 186.164062 256.472656 C 186.714844 256.96875 187.261719 257.46875 187.808594 257.96875 C 187.949219 258.097656 188.082031 258.230469 188.210938 258.367188 C 188.855469 259.027344 190.097656 258.5 190.554688 259.558594 C 190.617188 259.699219 190.832031 259.835938 190.988281 259.855469 C 191.359375 259.898438 191.738281 259.855469 192.117188 259.871094 C 192.480469 259.886719 193.070312 259.804688 193.171875 259.984375 C 193.8125 261.070312 195.210938 260.734375 195.933594 261.570312 C 196.339844 262.042969 196.820312 262.144531 197.402344 262.140625 C 197.941406 262.136719 198.617188 261.910156 198.980469 262.378906 C 199.652344 263.234375 200.496094 263.339844 201.460938 263.273438 C 202.023438 263.230469 202.59375 263.265625 203.007812 263.265625 C 204.804688 261.472656 206.527344 259.746094 208.402344 257.878906 C 208.402344 257.789062 208.246094 257.277344 208.429688 257.058594 C 209.160156 256.203125 209.90625 255.304688 210.828125 254.671875 C 211.855469 253.960938 211.5625 252.652344 212.394531 251.894531 C 213.363281 251 214.304688 250.066406 215.199219 249.097656 C 216.164062 248.042969 217.609375 247.292969 217.605469 245.570312 C 219.605469 243.574219 221.609375 241.570312 223.605469 239.570312 C 225.105469 239.785156 225.214844 238.753906 225.605469 237.660156 C 226.011719 236.523438 227.859375 236.203125 227.648438 234.550781 C 228.277344 233.871094 228.894531 233.175781 229.539062 232.503906 C 230.328125 231.691406 231.242188 230.980469 231.902344 230.078125 C 232.40625 229.390625 232.382812 228.457031 233.109375 227.742188 C 239.824219 221.117188 246.46875 214.429688 253.109375 207.78125 C 254.535156 207.75 254.777344 207.746094 254.765625 206.863281 C 254.75 205.644531 256.351562 205.234375 255.996094 203.925781 C 255.945312 203.722656 256.433594 203.378906 256.671875 203.097656 C 257.378906 202.289062 258.53125 201.738281 258.269531 200.371094 C 259.066406 199.792969 259.277344 198.960938 259.53125 198.054688 C 259.707031 197.4375 260.503906 197.078125 260.523438 196.195312 C 260.542969 195.324219 261.925781 194.949219 261.613281 193.832031 C 261.976562 193.039062 263.0625 192.59375 262.746094 191.472656 C 263.121094 191.0625 263.460938 190.617188 263.871094 190.246094 C 264.574219 189.609375 265.210938 188.964844 265.066406 187.90625 C 265.863281 187.335938 266.238281 186.539062 266.265625 185.574219 C 267.136719 185.039062 267.214844 184.105469 267.484375 183.25 C 267.644531 182.734375 267.898438 182.875 268.285156 183.277344 C 269.1875 184.214844 269.316406 184.167969 269.507812 182.964844 C 269.570312 182.570312 269.597656 182.261719 269.851562 181.960938 C 270.675781 180.980469 270.65625 180.964844 270.667969 180.042969 C 270.675781 179.128906 270.652344 179.113281 271.476562 178.121094 C 271.730469 177.816406 271.859375 177.550781 271.8125 177.121094 C 271.757812 176.570312 271.796875 176.007812 271.796875 175.511719 C 272.980469 174.316406 273.738281 172.902344 274.066406 171.269531 C 274.101562 171.101562 274.148438 170.859375 274.265625 170.796875 C 275.5625 170.144531 274.875 168.257812 276.246094 167.636719 C 276.570312 167.492188 276.753906 167.070312 277.0625 166.863281 C 277.675781 166.445312 277.265625 165.789062 277.480469 165.335938 C 277.789062 164.707031 278.703125 164.464844 278.59375 163.523438 C 278.480469 162.523438 280.011719 162.277344 279.730469 161.164062 C 279.695312 161.011719 279.757812 160.777344 279.859375 160.664062 C 280.375 160.113281 280.867188 159.523438 281.464844 159.070312 C 282.269531 158.464844 281.671875 157.207031 282.652344 156.71875 C 283.476562 156.3125 282.8125 155.316406 283.441406 154.773438 C 284.140625 154.164062 284.738281 153.433594 285.382812 152.757812 C 285.382812 152.378906 285.378906 152.007812 285.382812 151.628906 C 285.402344 150.882812 285.304688 150.105469 285.496094 149.40625 C 285.625 148.929688 286.160156 148.554688 286.515625 148.132812 C 286.207031 147.015625 287.589844 146.636719 287.609375 145.773438 C 287.636719 144.402344 288.792969 143.960938 289.46875 143.132812 C 289.941406 142.554688 290.539062 142.074219 291.050781 141.574219 L 291.050781 139.261719 C 292.1875 138.152344 292.183594 138.144531 292.183594 136.894531 C 292.183594 136.527344 292.105469 136.082031 292.28125 135.808594 C 292.675781 135.21875 293.367188 134.875 293.339844 133.96875 C 293.320312 133.152344 294.128906 132.730469 294.675781 132.285156 C 295.503906 131.605469 295.703125 130.78125 295.566406 129.816406 C 295.4375 128.894531 296.195312 128.546875 296.703125 127.929688 C 296.703125 126.5 296.796875 124.988281 296.671875 123.496094 C 296.578125 122.402344 297.125 121.769531 297.835938 121.15625 C 296.9375 120.207031 296.972656 120.226562 297.566406 119.132812 C 297.808594 118.679688 297.726562 118.03125 298.011719 117.632812 C 298.425781 117.039062 299.03125 116.640625 298.988281 115.753906 C 298.910156 114.0625 298.953125 112.359375 298.976562 110.660156 C 298.976562 110.3125 298.992188 109.789062 299.199219 109.648438 C 300.625 108.699219 300.035156 107.269531 300.078125 106.039062 C 300.15625 103.78125 300.144531 101.515625 300.078125 99.25 C 300.050781 98.332031 300.722656 97.980469 301.195312 97.410156 C 300.839844 97.019531 300.476562 96.621094 300.136719 96.242188 C 300.484375 95.851562 300.835938 95.457031 301.1875 95.066406 C 300.675781 94.496094 299.949219 94.105469 300.097656 93.203125 C 300.128906 93.023438 300.097656 92.824219 300.097656 92.636719 C 300.097656 91.320312 300.113281 89.996094 300.09375 88.675781 C 300.082031 88.050781 299.445312 87.820312 299.167969 87.363281 C 298.765625 86.695312 299.003906 85.914062 298.976562 85.183594 C 298.945312 84.246094 298.988281 83.300781 298.960938 82.355469 C 298.953125 82.007812 298.945312 81.46875 298.738281 81.34375 C 297.816406 80.78125 298.023438 79.71875 297.550781 78.980469 C 296.714844 77.679688 296.695312 77.695312 296.703125 77.066406 C 296.714844 76.3125 296.703125 75.554688 296.703125 74.777344 C 296.335938 74.386719 295.800781 74.039062 295.613281 73.5625 C 295.421875 73.070312 295.574219 72.445312 295.574219 71.878906 L 295.574219 71.335938 C 294.222656 69.992188 292.898438 68.644531 291.554688 67.324219 C 291.164062 66.9375 290.722656 66.59375 290.308594 66.238281 C 289.191406 66.550781 288.804688 65.289062 287.941406 65.136719 C 287.382812 65.039062 286.820312 65.039062 286.503906 64.515625 C 286.042969 63.75 285.078125 64.238281 284.574219 63.710938 C 284.039062 63.144531 283.507812 62.796875 282.664062 62.820312 C 280.210938 62.882812 277.757812 62.882812 275.308594 62.820312 C 274.371094 62.796875 274.070312 63.539062 273.484375 63.96875 L 264.363281 63.96875 C 263.871094 64.761719 263.175781 65.304688 262.097656 65.121094 C 261.738281 65.058594 261.1875 64.992188 261.015625 65.183594 C 260.367188 65.910156 259.636719 66.351562 258.65625 66.355469 C 258.054688 67.175781 257.269531 67.519531 256.246094 67.390625 C 255.910156 67.347656 255.339844 67.378906 255.230469 67.578125 C 254.601562 68.675781 253.136719 68.21875 252.457031 69.15625 C 252.347656 69.304688 252.175781 69.554688 252.0625 69.539062 C 250.71875 69.371094 250.121094 70.421875 249.328125 71.160156 C 249.152344 72.269531 248.984375 73.390625 247.394531 73.089844 C 246.863281 73.625 246.234375 74.089844 245.816406 74.703125 C 245.226562 75.574219 244.136719 75.128906 243.433594 75.859375 C 240.300781 79.121094 237.070312 82.296875 233.851562 85.480469 C 233.410156 85.914062 233.390625 86.410156 233.265625 86.945312 C 233.070312 87.789062 231.855469 88.195312 232.167969 89.3125 C 231.796875 89.726562 231.4375 90.140625 231.058594 90.550781 C 230.679688 90.960938 230.265625 91.34375 229.914062 91.78125 C 229.820312 91.894531 229.878906 92.148438 229.902344 92.335938 C 230.042969 93.375 228.484375 93.582031 228.753906 94.699219 C 228.847656 95.074219 228.539062 95.320312 228.277344 95.632812 C 227.597656 96.453125 226.332031 96.894531 226.503906 98.285156 C 226.023438 98.839844 225.558594 99.414062 225.058594 99.945312 C 224.546875 100.496094 224.042969 101.078125 223.449219 101.535156 C 222.769531 102.054688 223.441406 102.992188 222.675781 103.507812 C 222.066406 103.921875 221.453125 104.472656 221.097656 105.105469 C 220.671875 105.863281 220.65625 106.777344 219.90625 107.464844 C 219.453125 107.875 219.824219 108.921875 219.058594 109.34375 C 218.261719 109.785156 218.902344 110.800781 218.261719 111.273438 C 217.601562 111.761719 217.285156 112.378906 217.445312 113.199219 C 217.066406 113.609375 216.691406 114.019531 216.3125 114.429688 C 216.472656 115.265625 216.101562 115.851562 215.46875 116.34375 C 215.167969 116.578125 215.113281 116.9375 215.171875 117.355469 C 215.222656 117.734375 215.011719 118.027344 214.667969 118.28125 C 214.195312 118.632812 214.035156 119.113281 214.015625 119.71875 C 214.003906 120.019531 213.648438 120.3125 213.464844 120.613281 C 213.277344 120.90625 212.945312 121.214844 212.9375 121.515625 C 212.9375 122.648438 212.976562 123.710938 211.890625 124.511719 C 211.542969 124.765625 211.984375 125.609375 211.460938 126 C 210.800781 126.492188 210.496094 127.105469 210.648438 127.929688 C 209.953125 128.558594 209.300781 129.207031 209.464844 130.265625 C 208.671875 130.84375 208.28125 131.625 208.265625 132.597656 C 207.394531 133.132812 207.261719 134.046875 207.070312 134.929688 C 206.125 135.425781 206.347656 136.554688 205.832031 137.234375 C 205.375 137.839844 204.816406 138.316406 204.992188 139.160156 C 205.21875 140.238281 204.617188 140.914062 203.867188 141.5 C 203.867188 142.277344 203.746094 143.050781 203.882812 143.777344 C 204.09375 144.914062 203.292969 145.449219 202.722656 146.144531 L 202.722656 149.457031 C 203.898438 150.703125 203.890625 150.699219 203.859375 151.335938 C 203.84375 151.714844 203.699219 152.042969 203.320312 152.230469 C 203.257812 152.261719 203.054688 152.046875 202.929688 151.933594 C 202.660156 151.6875 202.398438 151.433594 202.132812 151.191406 Z M 65.773438 97.386719 C 66.914062 98.609375 66.84375 98.609375 66.910156 99.777344 C 66.957031 100.632812 66.574219 101.160156 65.996094 101.675781 C 65.753906 101.894531 65.980469 102.128906 66.300781 102.480469 C 67.050781 103.304688 67.152344 103.8125 66.636719 104.378906 C 66.121094 104.945312 65.679688 105.429688 65.730469 106.289062 C 65.816406 107.601562 65.808594 108.933594 65.730469 110.246094 C 65.675781 111.167969 66.40625 111.496094 66.882812 112.109375 C 66.882812 113.371094 66.914062 114.683594 66.867188 115.996094 C 66.851562 116.429688 66.988281 116.675781 67.226562 116.992188 C 68.03125 118.042969 68 118.0625 68.015625 118.925781 C 68.03125 119.699219 68.015625 119.714844 68.855469 120.835938 C 69.085938 121.140625 69.203125 121.425781 69.15625 121.851562 C 69.089844 122.511719 69.75 122.734375 70.023438 123.1875 C 70.195312 123.472656 70.195312 123.867188 70.277344 124.210938 C 70.320312 124.378906 70.355469 124.5625 70.445312 124.703125 C 70.542969 124.859375 70.703125 124.972656 70.839844 125.105469 C 71.03125 124.8125 71.382812 124.515625 71.382812 124.21875 C 71.421875 120.449219 71.40625 116.675781 71.421875 112.910156 C 71.421875 112.5625 71.453125 112.128906 71.65625 111.886719 C 72.09375 111.355469 72.792969 111.023438 71.871094 110.246094 C 71.175781 109.652344 71.222656 107.867188 71.761719 107.207031 C 72.101562 106.792969 72.625 106.542969 72.5625 105.832031 C 72.476562 104.902344 72.542969 103.953125 72.542969 103.140625 C 73.339844 102.226562 74.074219 101.390625 74.804688 100.554688 C 74.445312 99.292969 76.273438 98.882812 75.9375 97.632812 C 76.226562 96.804688 77.378906 96.390625 77.070312 95.273438 C 77.433594 94.859375 77.773438 94.425781 78.164062 94.035156 C 79.621094 92.558594 81.097656 91.101562 82.550781 89.621094 C 82.605469 89.566406 82.566406 89.335938 82.492188 89.238281 C 82.390625 89.097656 82.226562 88.921875 82.078125 88.910156 C 81.714844 88.878906 81.175781 88.785156 81.003906 88.984375 C 80.359375 89.722656 79.605469 90.121094 78.640625 90.15625 C 78.042969 90.988281 77.246094 91.320312 76.226562 91.164062 C 75.640625 91.074219 75.175781 91.300781 74.765625 91.738281 C 74.535156 91.988281 74.144531 92.296875 73.871094 92.257812 C 72.644531 92.09375 72.234375 93.863281 70.941406 93.421875 C 70.535156 93.796875 70.125 94.175781 69.714844 94.546875 C 69.320312 94.910156 68.929688 95.28125 68.539062 95.648438 C 68.242188 95.351562 67.980469 95.089844 67.714844 94.824219 C 67.445312 94.554688 66.9375 94.652344 66.960938 95.082031 C 67.023438 96.152344 66.425781 96.769531 65.761719 97.398438 Z M 293.371094 157.949219 C 293.554688 157.949219 293.761719 158 293.917969 157.933594 C 294.074219 157.871094 294.21875 157.710938 294.300781 157.554688 C 294.4375 157.300781 294.289062 156.941406 293.871094 156.832031 C 292.515625 156.480469 292.503906 156.515625 292 156.035156 C 291.882812 155.921875 291.742188 155.828125 291.617188 155.722656 C 291.441406 156.019531 291.15625 156.292969 291.113281 156.605469 C 290.984375 157.507812 291.386719 157.933594 292.277344 157.945312 C 292.644531 157.945312 293.007812 157.945312 293.375 157.945312 Z M 304.113281 127.378906 C 303.980469 127.511719 303.816406 127.621094 303.734375 127.769531 C 303.460938 128.257812 303.460938 128.765625 303.734375 129.253906 C 303.816406 129.410156 303.980469 129.515625 304.113281 129.644531 C 304.296875 129.359375 304.582031 129.09375 304.65625 128.78125 C 304.796875 128.195312 304.421875 127.378906 304.113281 127.378906 Z M 276.191406 188.132812 C 276.179688 188.003906 276.214844 187.84375 276.152344 187.75 C 275.773438 187.183594 274.539062 187.207031 274.289062 187.777344 C 274.242188 187.878906 274.253906 188.0625 274.316406 188.15625 C 274.691406 188.738281 275.925781 188.710938 276.183594 188.132812 Z M 100.671875 199.085938 C 100.546875 198.960938 100.347656 198.707031 100.304688 198.730469 C 99.910156 198.945312 99.773438 199.222656 99.917969 199.460938 C 100.011719 199.605469 100.234375 199.84375 100.277344 199.824219 C 100.671875 199.605469 100.789062 199.339844 100.667969 199.085938 Z M 73.304688 130.960938 C 73.054688 130.835938 72.785156 130.953125 72.566406 131.351562 C 72.542969 131.394531 72.78125 131.621094 72.929688 131.710938 C 73.171875 131.859375 73.445312 131.726562 73.664062 131.324219 C 73.6875 131.285156 73.429688 131.085938 73.304688 130.957031 Z M 305.621094 125.492188 C 305.496094 125.367188 305.300781 125.113281 305.253906 125.132812 C 304.859375 125.351562 304.722656 125.625 304.871094 125.863281 C 304.960938 126.011719 305.1875 126.25 305.226562 126.226562 C 305.621094 126.011719 305.742188 125.746094 305.617188 125.492188 Z M 229 74.917969 C 229.125 75.042969 229.320312 75.296875 229.367188 75.273438 C 229.761719 75.058594 229.898438 74.78125 229.753906 74.542969 C 229.660156 74.398438 229.4375 74.160156 229.394531 74.179688 C 229 74.398438 228.878906 74.664062 229.003906 74.917969 Z M 83.121094 68.308594 C 83.371094 68.433594 83.640625 68.320312 83.859375 67.917969 C 83.882812 67.878906 83.644531 67.648438 83.496094 67.5625 C 83.257812 67.410156 82.980469 67.546875 82.761719 67.945312 C 82.738281 67.988281 82.996094 68.183594 83.121094 68.3125 Z M 252.785156 57.554688 C 252.660156 57.800781 252.773438 58.074219 253.171875 58.289062 C 253.214844 58.316406 253.445312 58.078125 253.53125 57.925781 C 253.683594 57.6875 253.546875 57.414062 253.148438 57.195312 C 253.105469 57.167969 252.910156 57.429688 252.777344 57.554688 Z M 289.773438 56.800781 C 289.898438 56.550781 289.785156 56.28125 289.386719 56.0625 C 289.34375 56.039062 289.113281 56.277344 289.027344 56.425781 C 288.875 56.664062 289.011719 56.941406 289.410156 57.160156 C 289.453125 57.183594 289.648438 56.925781 289.78125 56.800781 Z M 289.773438 56.800781 " fill-opacity="1" fill-rule="nonzero"/></g><path fill="#ff9797" d="M 133.074219 77.496094 C 132.621094 77.042969 132.257812 76.609375 131.816406 76.265625 C 131.46875 75.992188 131.277344 75.710938 131.453125 75.300781 C 131.484375 75.234375 131.804688 75.289062 131.992188 75.289062 C 132.554688 75.289062 133.125 75.335938 133.679688 75.273438 C 134.117188 75.222656 134.449219 75.285156 134.640625 75.679688 C 134.765625 75.929688 134.582031 76.1875 134.214844 76.480469 C 133.816406 76.796875 133.445312 77.160156 133.066406 77.5 Z M 133.074219 77.496094 " fill-opacity="1" fill-rule="nonzero"/><path fill="#ff9797" d="M 138.226562 79.820312 C 138.394531 79.820312 138.632812 79.75 138.71875 79.832031 C 139.328125 80.398438 139.914062 80.984375 140.480469 81.59375 C 140.5625 81.679688 140.492188 81.917969 140.492188 82.085938 C 140.144531 82.085938 139.789062 82.089844 139.441406 82.085938 C 138.535156 82.070312 138.242188 81.777344 138.226562 80.871094 C 138.222656 80.523438 138.226562 80.167969 138.226562 79.820312 Z M 138.226562 79.820312 " fill-opacity="1" fill-rule="nonzero"/><path fill="#ff9797" d="M 231.082031 245.128906 C 231.082031 244.621094 230.988281 244.085938 231.105469 243.605469 C 231.226562 243.121094 231.59375 242.742188 232.210938 242.867188 L 232.210938 245.128906 Z M 231.082031 245.128906 " fill-opacity="1" fill-rule="nonzero"/><path fill="#ff9797" d="M 185.972656 277.589844 C 185.847656 277.339844 185.960938 277.070312 186.363281 276.851562 C 186.402344 276.824219 186.632812 277.0625 186.71875 277.214844 C 186.871094 277.453125 186.734375 277.730469 186.335938 277.945312 C 186.292969 277.972656 186.097656 277.714844 185.96875 277.589844 Z M 185.972656 277.589844 " fill-opacity="1" fill-rule="nonzero"/><path fill="#ff9797" d="M 184.273438 274.757812 C 184.398438 274.882812 184.652344 275.082031 184.632812 275.128906 C 184.414062 275.523438 184.140625 275.65625 183.902344 275.511719 C 183.757812 275.417969 183.515625 275.195312 183.539062 275.152344 C 183.757812 274.757812 184.019531 274.640625 184.273438 274.765625 Z M 184.273438 274.757812 " fill-opacity="1" fill-rule="nonzero"/><path fill="#ff9797" d="M 174.273438 270.792969 C 174.148438 270.917969 173.949219 271.171875 173.902344 271.152344 C 173.507812 270.933594 173.375 270.660156 173.519531 270.417969 C 173.613281 270.273438 173.835938 270.035156 173.878906 270.054688 C 174.273438 270.273438 174.390625 270.539062 174.265625 270.792969 Z M 174.273438 270.792969 " fill-opacity="1" fill-rule="nonzero"/><path fill="#ff9797" d="M 168.675781 267.324219 C 168.699219 267.367188 168.390625 267.675781 168.351562 267.652344 C 168.105469 267.519531 167.800781 267.367188 167.683594 267.140625 C 167.453125 266.667969 167.683594 266.433594 168.164062 266.660156 C 168.390625 266.777344 168.542969 267.078125 168.675781 267.324219 Z M 168.675781 267.324219 " fill-opacity="1" fill-rule="nonzero"/><path fill="#ff9797" d="M 153.894531 258.339844 C 153.769531 258.464844 153.570312 258.71875 153.523438 258.699219 C 153.128906 258.480469 152.996094 258.207031 153.140625 257.96875 C 153.234375 257.820312 153.457031 257.582031 153.5 257.605469 C 153.894531 257.820312 154.011719 258.085938 153.886719 258.339844 Z M 153.894531 258.339844 " fill-opacity="1" fill-rule="nonzero"/><path fill="#ff9797" d="M 146.90625 249.847656 C 147.03125 249.972656 147.285156 250.171875 147.265625 250.21875 C 147.046875 250.613281 146.769531 250.746094 146.53125 250.601562 C 146.386719 250.507812 146.148438 250.285156 146.167969 250.242188 C 146.386719 249.847656 146.652344 249.730469 146.90625 249.855469 Z M 146.90625 249.847656 " fill-opacity="1" fill-rule="nonzero"/><path fill="#ff9797" d="M 142.757812 84.347656 C 141.855469 84.199219 141.773438 84.121094 141.628906 83.21875 C 142.53125 83.367188 142.613281 83.445312 142.757812 84.347656 Z M 142.757812 84.347656 " fill-opacity="1" fill-rule="nonzero"/><path fill="#ff9797" d="M 141.621094 83.21875 C 140.71875 83.066406 140.636719 82.988281 140.492188 82.085938 C 141.394531 82.234375 141.476562 82.3125 141.621094 83.21875 Z M 141.621094 83.21875 " fill-opacity="1" fill-rule="nonzero"/><path fill="#ff9797" d="M 138.226562 79.820312 C 137.324219 79.671875 137.242188 79.59375 137.09375 78.691406 C 138 78.839844 138.082031 78.917969 138.226562 79.820312 Z M 138.226562 79.820312 " fill-opacity="1" fill-rule="nonzero"/><path fill="#ff9797" d="M 136.59375 78.679688 C 136.445312 78.628906 136.320312 78.5 136.21875 78.375 C 136.140625 78.28125 136.035156 78.105469 136.078125 78.027344 C 136.289062 77.605469 136.519531 77.574219 136.785156 77.804688 C 137.070312 78.046875 137.214844 78.316406 137.070312 78.679688 C 137.050781 78.738281 136.738281 78.726562 136.585938 78.679688 Z M 136.59375 78.679688 " fill-opacity="1" fill-rule="nonzero"/><path fill="#ff9797" d="M 130.933594 75.28125 C 130.789062 75.226562 130.664062 75.097656 130.558594 74.972656 C 130.484375 74.878906 130.378906 74.703125 130.421875 74.625 C 130.632812 74.207031 130.863281 74.175781 131.125 74.402344 C 131.410156 74.648438 131.558594 74.917969 131.410156 75.28125 C 131.390625 75.335938 131.078125 75.328125 130.929688 75.28125 Z M 130.933594 75.28125 " fill-opacity="1" fill-rule="nonzero"/><path fill="#ff9797" d="M 243.722656 60.949219 C 243.84375 60.824219 244.042969 60.570312 244.089844 60.589844 C 244.484375 60.808594 244.617188 61.082031 244.472656 61.320312 C 244.378906 61.46875 244.15625 61.707031 244.117188 61.683594 C 243.722656 61.46875 243.601562 61.203125 243.726562 60.949219 Z M 243.722656 60.949219 " fill-opacity="1" fill-rule="nonzero"/></svg>