<svg xmlns="http://www.w3.org/2000/svg" xmlns:xlink="http://www.w3.org/1999/xlink" width="500" zoomAndPan="magnify" viewBox="0 0 375 374.999991" height="500" preserveAspectRatio="xMidYMid meet" version="1.0"><defs><clipPath id="5d893e9966"><path d="M 144 260 L 230 260 L 230 346.9375 L 144 346.9375 Z M 144 260 " clip-rule="nonzero"/></clipPath><clipPath id="547c784330"><path d="M 175 56 L 289.722656 56 L 289.722656 176 L 175 176 Z M 175 56 " clip-rule="nonzero"/></clipPath></defs><g clip-path="url(#5d893e9966)"><path fill="#ff9797" d="M 229.257812 270.820312 C 229.203125 271.667969 229.125 272.820312 229.058594 273.96875 C 229.046875 274.222656 229.058594 274.480469 229.09375 274.734375 C 229.09375 274.921875 229.199219 275.105469 229.21875 275.285156 C 229.375 276.671875 229.28125 278.089844 229.851562 279.414062 C 229.898438 279.597656 229.898438 279.78125 229.851562 279.964844 C 229.539062 282.519531 229.851562 285.074219 229.761719 287.625 C 229.792969 288.074219 229.761719 288.519531 229.671875 288.964844 C 229.394531 289.839844 229.394531 290.71875 229.671875 291.597656 C 229.730469 292.109375 229.660156 292.605469 229.457031 293.082031 C 229.269531 293.757812 229.035156 294.417969 228.761719 295.066406 C 228.457031 295.660156 228.402344 296.277344 228.601562 296.914062 C 228.710938 297.261719 228.738281 297.613281 228.675781 297.972656 C 228.617188 298.328125 228.480469 298.652344 228.261719 298.945312 C 227.363281 300.152344 227.332031 301.542969 227.207031 302.929688 C 227.199219 303.058594 227.199219 303.1875 227.207031 303.316406 C 227.242188 303.640625 227.199219 303.953125 227.074219 304.257812 C 226.949219 304.558594 226.757812 304.816406 226.503906 305.019531 C 226.175781 305.25 225.941406 305.554688 225.792969 305.925781 C 225.648438 306.300781 225.613281 306.679688 225.695312 307.074219 C 225.824219 307.648438 225.800781 308.21875 225.621094 308.785156 C 225.445312 309.347656 225.136719 309.828125 224.703125 310.230469 C 224.324219 310.597656 224.117188 311.042969 224.082031 311.570312 C 224.007812 312.074219 223.886719 312.570312 223.722656 313.054688 C 223.574219 313.605469 223.433594 314.15625 223.273438 314.710938 C 223.167969 315.074219 223.042969 315.433594 222.898438 315.785156 C 222.4375 316.703125 222.039062 317.644531 221.699219 318.609375 C 221.507812 319.445312 221.082031 320.132812 220.421875 320.679688 C 219.84375 321.136719 219.496094 321.734375 219.382812 322.460938 C 219.257812 323.234375 218.980469 323.941406 218.542969 324.589844 C 218.296875 324.96875 218.109375 325.375 217.988281 325.8125 C 217.695312 326.667969 217.269531 327.449219 216.707031 328.160156 C 216.375 328.636719 216.078125 329.125 215.804688 329.632812 C 215.671875 329.855469 215.59375 330.140625 215.40625 330.285156 C 214.164062 331.210938 213.945312 332.78125 213.09375 333.933594 C 211.691406 335.824219 210.828125 338.105469 208.988281 339.6875 C 208.457031 340.136719 208.214844 340.707031 208.25 341.398438 C 208.277344 341.847656 208.277344 342.296875 208.25 342.746094 C 208.246094 342.972656 208.207031 343.191406 208.125 343.40625 C 208.042969 343.617188 207.929688 343.808594 207.78125 343.980469 C 207.628906 344.152344 207.457031 344.296875 207.257812 344.40625 C 207.058594 344.515625 206.84375 344.589844 206.621094 344.625 C 206.496094 344.65625 206.367188 344.671875 206.238281 344.675781 C 205.335938 344.675781 204.617188 344.972656 204.253906 345.902344 C 204.074219 346.347656 203.628906 346.480469 203.148438 346.574219 C 201.367188 346.933594 200.039062 346.023438 198.773438 345.019531 C 198.164062 344.542969 197.667969 343.953125 196.859375 343.796875 C 196.664062 343.757812 196.496094 343.664062 196.355469 343.523438 C 195.058594 342.375 193.613281 341.457031 192.019531 340.761719 C 191.804688 340.628906 191.605469 340.472656 191.417969 340.300781 C 190.773438 339.761719 190.050781 339.355469 189.25 339.085938 C 188.816406 338.945312 188.421875 338.734375 188.0625 338.457031 C 186.867188 337.605469 185.578125 336.933594 184.191406 336.441406 C 184 336.394531 183.839844 336.296875 183.710938 336.144531 C 183.316406 335.445312 182.605469 335.355469 181.957031 335.109375 C 180.675781 334.652344 179.542969 333.949219 178.566406 333 C 177.558594 331.898438 176.382812 331.019531 175.039062 330.355469 C 174.226562 330 173.574219 329.304688 172.640625 329.175781 C 172.507812 329.152344 172.394531 329.09375 172.296875 329.003906 C 171.324219 328.089844 170.355469 327.167969 169.386719 326.246094 C 169.082031 325.929688 168.757812 325.628906 168.421875 325.347656 C 167.910156 324.957031 167.375 324.601562 166.824219 324.269531 C 166.078125 323.84375 165.523438 323.238281 165.164062 322.460938 C 164.78125 321.589844 164.136719 321.003906 163.226562 320.707031 C 162.796875 320.5625 162.417969 320.328125 162.097656 320.003906 C 161.777344 319.679688 161.546875 319.304688 161.410156 318.871094 C 161.113281 318.289062 160.691406 317.824219 160.144531 317.472656 C 159.40625 316.945312 158.785156 316.304688 158.285156 315.546875 C 158.089844 315.210938 157.824219 314.9375 157.496094 314.730469 C 156.800781 314.316406 156.335938 313.722656 156.105469 312.949219 C 155.761719 311.953125 155.175781 311.121094 154.351562 310.460938 C 153.664062 309.910156 153.246094 309.066406 152.421875 308.59375 C 152.148438 308.40625 151.945312 308.15625 151.820312 307.847656 C 151.691406 307.539062 151.65625 307.21875 151.714844 306.890625 C 151.796875 305.941406 151.5 305.132812 150.824219 304.457031 C 150.273438 303.839844 150.007812 303.035156 149.234375 302.574219 C 148.925781 302.316406 148.761719 301.988281 148.734375 301.589844 C 148.71875 301 148.542969 300.464844 148.210938 299.984375 C 147.988281 299.660156 147.867188 299.304688 147.84375 298.914062 C 147.742188 297.945312 147.4375 297.046875 146.925781 296.21875 C 146.3125 295.289062 145.992188 294.265625 145.960938 293.152344 C 145.996094 292.082031 145.679688 291.125 145.019531 290.28125 C 144.691406 289.792969 144.527344 289.25 144.527344 288.660156 C 144.519531 287.886719 144.394531 287.132812 144.144531 286.398438 C 144.125 286.335938 144.113281 286.273438 144.105469 286.210938 C 144.105469 286.015625 143.996094 285.792969 144.066406 285.660156 C 144.621094 284.484375 143.757812 283.257812 144.230469 282.089844 C 144.34375 281.78125 144.394531 281.464844 144.382812 281.140625 C 144.324219 279.207031 145.21875 277.570312 145.949219 275.882812 C 146.085938 275.511719 146.296875 275.191406 146.59375 274.925781 C 146.886719 274.660156 147.222656 274.480469 147.605469 274.378906 C 148.105469 274.222656 148.523438 273.941406 148.855469 273.535156 C 149.71875 272.664062 153.785156 270.855469 154.988281 271 C 156.65625 271.152344 158.300781 271.027344 159.925781 270.625 C 160.242188 270.519531 160.5625 270.503906 160.882812 270.578125 C 162.09375 271.09375 163.097656 270.28125 164.203125 270.160156 C 164.257812 270.074219 164.277344 269.980469 164.261719 269.878906 C 163.925781 269.582031 163.570312 269.328125 163.226562 269.011719 C 163.183594 268.96875 163.148438 268.914062 163.128906 268.855469 C 163.109375 268.792969 163.105469 268.730469 163.117188 268.667969 C 163.128906 268.605469 163.152344 268.546875 163.191406 268.5 C 163.230469 268.449219 163.28125 268.410156 163.339844 268.382812 C 163.691406 268.214844 164.058594 268.101562 164.445312 268.046875 C 165.855469 267.933594 167.269531 267.910156 168.6875 267.980469 C 169.835938 268.113281 170.957031 268.371094 172.046875 268.757812 C 172.589844 268.976562 173.0625 269.292969 173.46875 269.710938 C 173.96875 270.269531 174.589844 270.542969 175.339844 270.53125 C 175.828125 270.546875 176.207031 270.757812 176.472656 271.167969 C 176.734375 271.53125 177.042969 271.847656 177.394531 272.117188 C 178.070312 272.511719 178.636719 273.019531 179.097656 273.648438 C 179.320312 273.972656 179.605469 274.222656 179.957031 274.402344 C 180.640625 274.796875 181.175781 275.335938 181.554688 276.03125 C 182.011719 276.71875 182.433594 277.441406 182.949219 278.09375 C 183.929688 279.210938 184.667969 280.472656 185.160156 281.875 C 185.261719 282.179688 185.429688 282.445312 185.65625 282.671875 C 186.054688 283.039062 186.265625 283.492188 186.289062 284.03125 C 186.277344 284.230469 186.339844 284.402344 186.476562 284.550781 C 187.210938 285.023438 187.667969 285.691406 187.847656 286.546875 C 187.871094 286.613281 187.914062 286.65625 187.980469 286.679688 C 189.289062 287.132812 190.082031 288.335938 191.242188 288.976562 C 191.71875 289.292969 192.179688 289.636719 192.617188 290.007812 C 192.761719 290.113281 193.011719 290.277344 193.089844 290.007812 C 193.328125 289.207031 193.984375 288.605469 194.089844 287.738281 C 194.125 287.347656 194.253906 286.988281 194.476562 286.664062 C 194.917969 286.109375 194.890625 285.472656 195.03125 284.859375 C 195.363281 283.574219 195.582031 282.238281 196.496094 281.171875 C 196.882812 280.703125 197.054688 280.167969 197.007812 279.5625 C 196.976562 278.8125 197.226562 278.175781 197.761719 277.648438 C 198.027344 277.371094 198.238281 277.039062 198.484375 276.746094 C 198.996094 276.234375 199.335938 275.621094 199.496094 274.914062 C 199.5625 274.527344 199.714844 274.179688 199.949219 273.863281 C 200.1875 273.550781 200.480469 273.304688 200.835938 273.132812 C 201.339844 272.933594 201.699219 272.585938 201.914062 272.089844 C 202.207031 271.34375 202.699219 270.773438 203.394531 270.375 C 203.914062 270.0625 204.25 269.613281 204.40625 269.027344 C 204.554688 268.589844 204.816406 268.238281 205.191406 267.96875 C 205.953125 267.375 206.742188 266.835938 207.570312 266.339844 C 209.328125 265.296875 211.085938 264.25 212.902344 263.308594 C 214.304688 262.523438 215.765625 261.875 217.285156 261.359375 C 218.460938 261.027344 219.652344 260.898438 220.871094 260.972656 C 221.988281 261.027344 223.019531 261.359375 223.960938 261.964844 C 224.34375 262.203125 224.710938 262.457031 225.066406 262.707031 C 225.539062 263.070312 226.074219 263.253906 226.671875 263.257812 C 227.410156 263.222656 227.820312 263.691406 228.179688 264.277344 C 228.808594 265.304688 228.820312 266.484375 229.019531 267.589844 C 229.160156 268.660156 229.242188 269.738281 229.257812 270.820312 Z M 199.398438 296.203125 C 199.445312 296.507812 199.53125 296.804688 199.648438 297.089844 C 199.917969 297.675781 200.265625 298.210938 200.6875 298.695312 C 201.394531 299.386719 201.867188 300.207031 202.113281 301.164062 C 202.253906 301.75 202.570312 302.214844 203.070312 302.558594 C 203.210938 302.679688 203.371094 302.730469 203.554688 302.714844 C 203.699219 302.664062 203.886719 302.421875 203.867188 302.292969 C 203.613281 300.894531 204.417969 299.535156 204.070312 298.140625 C 204.046875 297.8125 204.117188 297.507812 204.285156 297.222656 C 204.554688 296.765625 204.609375 296.28125 204.445312 295.773438 C 204.1875 294.925781 204.285156 294.121094 204.738281 293.363281 C 205.105469 292.734375 205.242188 292.058594 205.15625 291.335938 C 205.109375 291.042969 205.140625 290.757812 205.246094 290.480469 C 205.347656 290.203125 205.515625 289.96875 205.742188 289.773438 C 206.105469 289.460938 206.269531 289.0625 206.226562 288.582031 C 206.226562 288.203125 206.394531 287.8125 206.347656 287.441406 C 206.269531 286.4375 206.511719 285.519531 207.066406 284.683594 C 207.21875 284.328125 207.328125 283.960938 207.394531 283.578125 C 207.484375 283.144531 207.617188 282.722656 207.792969 282.316406 C 208.03125 281.863281 208.199219 281.382812 208.289062 280.878906 C 208.476562 279.941406 208.664062 278.988281 209.589844 278.402344 C 209.78125 278.28125 209.875 277.996094 210.019531 277.785156 C 210.871094 276.53125 211.214844 274.949219 212.515625 273.988281 C 212.667969 273.859375 212.761719 273.695312 212.800781 273.5 C 213.179688 271.84375 214.539062 270.832031 215.34375 269.464844 C 215.527344 269.191406 215.777344 268.996094 216.085938 268.878906 C 217.003906 268.546875 217.472656 267.777344 218.003906 267.054688 C 218.042969 266.941406 218.019531 266.84375 217.9375 266.753906 C 217.828125 266.679688 217.710938 266.660156 217.585938 266.699219 C 217.109375 266.890625 216.6875 267.160156 216.320312 267.515625 C 215.902344 268.027344 215.378906 268.363281 214.742188 268.527344 C 214.195312 268.703125 213.664062 268.914062 213.144531 269.167969 C 212.476562 269.53125 211.84375 269.972656 211.191406 270.375 C 210.859375 271.355469 209.867188 271.21875 209.175781 271.601562 C 208.773438 271.828125 208.488281 272.15625 208.324219 272.585938 C 208.117188 273.199219 207.542969 273.433594 207.25 273.894531 C 206.980469 274.472656 206.757812 275.0625 206.574219 275.671875 C 206.4375 275.902344 206.25 276.085938 206.023438 276.222656 C 204.574219 277.355469 203.8125 279.011719 202.804688 280.457031 C 202.679688 280.601562 202.570312 280.757812 202.476562 280.925781 C 202.402344 281.101562 202.355469 281.285156 202.339844 281.476562 C 202.324219 282.226562 202.03125 282.84375 201.464844 283.335938 C 201.292969 283.480469 201.246094 283.777344 201.152344 284.007812 C 200.703125 285.113281 200.675781 286.382812 199.882812 287.386719 C 199.765625 287.695312 199.785156 287.996094 199.941406 288.289062 C 200.257812 288.894531 200.300781 289.515625 200.074219 290.15625 C 199.832031 290.890625 199.71875 291.644531 199.730469 292.417969 C 199.6875 292.96875 199.355469 293.554688 199.425781 294.074219 C 199.605469 294.792969 199.59375 295.511719 199.390625 296.226562 Z M 219.015625 286.269531 C 219.066406 286.503906 219.066406 286.738281 219.015625 286.972656 C 218.359375 288.339844 218.382812 289.824219 218.226562 291.28125 C 218.222656 291.347656 218.207031 291.40625 218.175781 291.464844 C 217.75 292.164062 217.832031 292.941406 217.789062 293.714844 C 217.804688 294.226562 217.714844 294.722656 217.519531 295.199219 C 216.796875 296.632812 216.285156 298.136719 215.980469 299.710938 C 215.792969 300.652344 215.496094 301.5625 215.089844 302.433594 C 214.773438 303.265625 214.535156 304.121094 214.371094 305 C 214.292969 305.5 214.167969 305.992188 213.996094 306.472656 C 213.5 307.449219 213.144531 308.476562 212.933594 309.550781 C 212.84375 310.066406 212.621094 310.523438 212.269531 310.914062 C 211.429688 311.808594 211.226562 312.921875 210.949219 314.03125 C 210.777344 314.710938 210.679688 315.410156 210.460938 316.070312 C 210.1875 316.921875 209.910156 317.792969 208.929688 318.164062 C 208.664062 318.332031 208.480469 318.566406 208.378906 318.863281 C 208.210938 319.199219 208.234375 319.675781 208.003906 319.941406 C 207.132812 320.910156 207.863281 321.871094 207.945312 322.832031 C 207.945312 322.859375 208.035156 322.898438 208.078125 322.890625 C 208.125 322.886719 208.234375 322.863281 208.25 322.820312 C 208.621094 322.007812 208.988281 321.191406 209.355469 320.375 C 209.554688 320.054688 209.707031 319.714844 209.816406 319.355469 C 209.851562 318.757812 210.085938 318.246094 210.511719 317.828125 C 210.738281 317.585938 210.875 317.304688 210.921875 316.984375 C 211.03125 316.347656 211.253906 315.753906 211.589844 315.207031 C 212.363281 313.894531 213.054688 312.53125 213.804688 311.179688 C 213.941406 310.964844 214.042969 310.730469 214.101562 310.484375 C 214.257812 309.066406 215.367188 307.933594 215.3125 306.449219 C 215.3125 306.230469 215.511719 305.980469 215.667969 305.789062 C 216.121094 305.226562 216.40625 304.589844 216.519531 303.878906 C 216.566406 303.550781 216.703125 303.269531 216.9375 303.035156 C 217.601562 302.445312 217.589844 301.683594 217.625 300.910156 C 217.65625 299.40625 218.035156 297.996094 218.761719 296.675781 C 219.308594 295.902344 219.457031 295.058594 219.210938 294.144531 C 219.078125 293.738281 219.039062 293.328125 219.097656 292.902344 C 219.15625 292.480469 219.304688 292.09375 219.542969 291.738281 C 219.695312 291.527344 219.773438 291.289062 219.78125 291.027344 C 219.78125 289.210938 220.378906 287.496094 220.671875 285.734375 C 220.898438 284.679688 221.0625 283.613281 221.167969 282.535156 C 221.15625 282.078125 221.28125 281.664062 221.542969 281.289062 C 221.851562 280.953125 222.070312 280.566406 222.199219 280.128906 C 222.332031 279.695312 222.363281 279.25 222.296875 278.800781 C 222.242188 278.160156 222.222656 277.519531 222.242188 276.878906 C 222.214844 276.429688 222.3125 276.003906 222.535156 275.609375 C 222.921875 275.0625 223.0625 274.457031 222.964844 273.796875 C 222.964844 272.972656 222.753906 272.140625 223.464844 271.445312 C 223.589844 271.320312 223.539062 270.960938 223.496094 270.726562 C 223.421875 270.414062 223.324219 270.109375 223.203125 269.8125 C 223.175781 269.753906 223.136719 269.707031 223.082031 269.667969 C 223.03125 269.628906 222.972656 269.605469 222.910156 269.59375 C 222.847656 269.582031 222.785156 269.589844 222.722656 269.609375 C 222.660156 269.628906 222.605469 269.660156 222.5625 269.707031 C 222.074219 270.125 221.617188 270.578125 221.109375 270.964844 C 220.132812 271.695312 219.636719 272.59375 220.554688 273.691406 C 220.769531 273.9375 220.914062 274.21875 220.992188 274.535156 C 221.066406 274.851562 221.058594 275.167969 220.976562 275.484375 C 220.742188 276.8125 220.441406 278.121094 220.074219 279.417969 C 219.644531 280.503906 219.445312 281.628906 219.46875 282.796875 C 219.535156 283.980469 218.796875 285.046875 219.011719 286.289062 Z M 166.160156 309.164062 L 166.253906 309.136719 C 165.945312 308.03125 165.660156 306.929688 165.308594 305.824219 C 165.195312 305.449219 164.980469 305.144531 164.660156 304.914062 C 163.910156 304.492188 163.664062 303.746094 163.378906 303.054688 C 162.886719 301.886719 162.769531 300.566406 161.921875 299.535156 C 161.804688 299.371094 161.761719 299.183594 161.789062 298.984375 C 161.855469 298.375 161.671875 297.855469 161.238281 297.421875 C 160.96875 296.984375 160.730469 296.53125 160.519531 296.066406 C 160.050781 295.347656 159.824219 294.558594 159.84375 293.699219 C 159.8125 293.253906 159.734375 292.816406 159.613281 292.386719 C 159.367188 291.390625 159.214844 290.382812 159.164062 289.359375 C 159.195312 288.1875 158.933594 287.085938 158.378906 286.050781 C 157.550781 284.394531 158.507812 282.957031 160.347656 282.871094 C 160.601562 282.871094 160.863281 282.871094 161.117188 282.84375 C 161.785156 282.789062 162.382812 282.976562 162.90625 283.398438 C 163.71875 284.027344 164.535156 284.644531 164.914062 285.652344 C 164.914062 285.707031 165.113281 285.714844 165.21875 285.714844 C 165.324219 285.714844 165.296875 285.621094 165.308594 285.558594 C 165.414062 285.082031 165.292969 284.664062 164.953125 284.3125 C 164.023438 283.257812 163.683594 281.828125 162.742188 280.777344 C 162.511719 280.457031 162.382812 280.101562 162.359375 279.710938 C 162.304688 279.15625 162.113281 278.648438 161.789062 278.195312 C 161.460938 277.742188 161.042969 277.398438 160.535156 277.167969 C 160.082031 276.914062 159.855469 276.929688 159.539062 277.320312 C 159.277344 277.605469 159.050781 277.914062 158.859375 278.25 C 158.316406 279.40625 157.800781 280.582031 157.3125 281.769531 C 157.113281 282.175781 157.003906 282.609375 156.980469 283.058594 C 156.980469 283.6875 157.238281 284.3125 157.246094 284.941406 C 157.203125 285.574219 157.125 286.203125 157.003906 286.828125 C 157.007812 286.957031 157.039062 287.082031 157.097656 287.199219 C 157.265625 287.75 157.464844 288.300781 157.609375 288.855469 C 157.847656 289.773438 158.351562 290.640625 158.308594 291.613281 C 158.269531 293.058594 158.648438 294.382812 159.445312 295.589844 C 159.988281 296.550781 160.300781 297.582031 160.378906 298.679688 C 160.433594 299.855469 160.800781 300.921875 161.488281 301.878906 C 162.273438 302.832031 162.851562 303.898438 163.222656 305.074219 C 163.71875 306.886719 165.085938 308.109375 165.878906 309.699219 C 165.921875 309.746094 165.976562 309.761719 166.042969 309.75 C 166.125 309.6875 166.230469 309.605469 166.246094 309.515625 C 166.234375 309.398438 166.203125 309.289062 166.152344 309.179688 Z M 170.171875 303.738281 C 170.328125 304.773438 170.828125 305.597656 171.671875 306.210938 C 171.960938 306.480469 172.160156 306.804688 172.269531 307.183594 C 172.667969 308.429688 173.355469 309.488281 174.335938 310.355469 C 174.878906 310.777344 175.183594 311.328125 175.25 312.011719 C 175.289062 312.546875 175.523438 312.976562 175.953125 313.296875 C 176.535156 313.828125 176.925781 314.472656 177.125 315.234375 C 177.386719 315.964844 177.753906 316.636719 178.230469 317.246094 C 179.003906 318.351562 180.039062 319.210938 180.542969 320.492188 C 180.703125 320.777344 180.917969 321.007812 181.195312 321.1875 C 182 321.84375 182.636719 322.636719 183.101562 323.566406 C 183.453125 324.175781 183.855469 324.75 184.320312 325.28125 C 184.640625 325.785156 185.082031 326.136719 185.644531 326.339844 C 186.132812 325.789062 185.644531 325.265625 185.644531 324.722656 C 185.582031 323.4375 185.269531 322.210938 184.699219 321.054688 C 184.53125 320.628906 184.261719 320.289062 183.882812 320.035156 C 183.222656 319.683594 182.796875 319.152344 182.605469 318.433594 C 182.46875 318.140625 182.292969 317.875 182.066406 317.640625 C 181.1875 316.46875 180.515625 315.144531 179.242188 314.289062 C 178.839844 314.019531 178.6875 313.390625 178.261719 313.140625 C 177.652344 312.746094 177.230469 312.203125 176.996094 311.515625 C 176.660156 310.507812 176.042969 309.710938 175.15625 309.125 C 174.945312 308.96875 174.757812 308.785156 174.601562 308.574219 C 173.910156 307.824219 173.300781 307.015625 172.765625 306.144531 C 171.945312 304.933594 171.035156 303.789062 170.046875 302.707031 C 169.992188 302.640625 169.851562 302.640625 169.753906 302.613281 C 169.753906 302.667969 169.699219 302.742188 169.714844 302.785156 C 169.847656 303.089844 169.984375 303.375 170.167969 303.757812 Z M 169.25 272.972656 L 169.25 272.945312 C 168.414062 272.945312 167.589844 272.945312 166.746094 272.996094 C 166.5625 273.03125 166.394531 273.09375 166.230469 273.183594 C 166.300781 273.414062 166.398438 273.628906 166.523438 273.835938 C 166.671875 274.042969 166.855469 274.210938 167.078125 274.335938 C 168.347656 275.082031 169.65625 275.753906 171.003906 276.355469 C 173.503906 277.359375 175.863281 278.625 178.082031 280.152344 C 178.667969 280.550781 179.1875 281.039062 179.964844 280.96875 C 180.277344 280.96875 180.105469 280.542969 179.269531 279.164062 C 178.71875 278.226562 178.164062 277.300781 177.152344 276.730469 C 176.902344 276.539062 176.695312 276.308594 176.539062 276.035156 C 175.984375 275.324219 175.613281 274.480469 174.558594 274.382812 C 174.460938 274.382812 174.347656 274.230469 174.277344 274.132812 C 173.617188 273.183594 172.617188 273.027344 171.578125 272.972656 C 170.789062 272.945312 170.011719 272.992188 169.246094 272.992188 Z M 188.660156 298.09375 C 188.609375 297.890625 188.625 297.542969 188.472656 297.417969 C 187.691406 296.683594 187.835938 295.480469 187.066406 294.746094 C 186.910156 294.59375 186.910156 294.277344 186.84375 294.027344 C 186.722656 293.539062 186.636719 293.035156 186.476562 292.5625 C 186.148438 291.589844 185.816406 290.613281 185.417969 289.671875 C 185.191406 289 184.84375 288.398438 184.386719 287.859375 C 183.703125 287.210938 182.726562 286.878906 182.171875 286.089844 C 181.234375 285.917969 180.621094 285.238281 179.917969 284.695312 C 179.414062 284.300781 178.90625 284.242188 178.972656 284.449219 C 179.066406 284.757812 179.199219 285.050781 179.371094 285.324219 C 179.488281 285.472656 179.632812 285.597656 179.800781 285.691406 C 180.4375 286.148438 180.949219 286.714844 181.332031 287.398438 C 181.714844 288.15625 182.25 288.789062 182.9375 289.296875 C 183.152344 289.441406 183.3125 289.640625 183.40625 289.886719 C 183.890625 291.074219 184.527344 292.175781 185.308594 293.195312 C 185.5625 293.703125 185.859375 294.1875 186.191406 294.648438 C 187.085938 295.59375 187.738281 296.679688 188.144531 297.914062 C 188.191406 298.03125 188.253906 298.136719 188.332031 298.234375 C 188.390625 298.273438 188.449219 298.28125 188.515625 298.261719 C 188.546875 298.265625 188.582031 298.195312 188.652344 298.113281 Z M 193.128906 296.671875 C 193.09375 296.550781 193.054688 296.429688 193.023438 296.308594 C 192.9375 295.921875 192.761719 295.585938 192.492188 295.300781 C 192.222656 295.011719 191.898438 294.8125 191.519531 294.703125 C 191.226562 294.601562 190.804688 294.300781 190.695312 294.394531 C 190.394531 294.636719 190.695312 294.945312 190.820312 295.242188 C 190.949219 295.542969 191.226562 295.964844 191.203125 296.3125 C 191.148438 297.351562 192.125 298.152344 191.8125 299.222656 C 192.058594 299.878906 192.296875 300.539062 192.558594 301.191406 C 192.589844 301.257812 192.75 301.285156 192.863281 301.308594 C 192.972656 301.328125 192.96875 301.230469 192.96875 301.1875 C 193.035156 300.746094 193.035156 300.304688 192.96875 299.859375 C 192.628906 298.914062 192.652344 297.976562 193.039062 297.046875 C 193.082031 296.925781 193.113281 296.800781 193.128906 296.671875 Z M 177.644531 293.363281 C 177.410156 292.976562 177.15625 292.546875 176.898438 292.121094 C 176.851562 292.066406 176.796875 292.042969 176.726562 292.046875 C 176.664062 292.082031 176.625 292.128906 176.609375 292.199219 C 176.550781 292.488281 176.589844 292.769531 176.726562 293.03125 C 176.867188 293.296875 177.074219 293.488281 177.351562 293.605469 C 177.402344 293.628906 177.449219 293.628906 177.5 293.605469 C 177.542969 293.570312 177.566406 293.503906 177.644531 293.363281 Z M 179.019531 295.484375 C 178.976562 295.589844 178.871094 295.722656 178.898438 295.792969 C 179.089844 296.273438 179.425781 296.597656 179.917969 296.761719 C 179.960938 296.761719 180.03125 296.761719 180.070312 296.699219 C 180.109375 296.65625 180.125 296.605469 180.117188 296.550781 C 180.078125 296.300781 179.972656 296.082031 179.808594 295.894531 C 179.644531 295.707031 179.4375 295.574219 179.199219 295.503906 C 179.140625 295.492188 179.082031 295.488281 179.019531 295.492188 Z M 181.414062 298.921875 L 181.414062 298.773438 L 181.242188 298.8125 C 181.257812 298.863281 181.273438 298.910156 181.300781 298.957031 C 181.339844 298.953125 181.378906 298.941406 181.414062 298.929688 Z M 181.414062 298.921875 " fill-opacity="1" fill-rule="nonzero"/></g><path fill="#ff9797" d="M 167.839844 147.789062 C 168.089844 148.839844 168.394531 150.261719 168.769531 151.683594 C 168.851562 152 168.957031 152.304688 169.089844 152.601562 C 169.1875 152.820312 169.359375 153.015625 169.453125 153.234375 C 170.15625 154.890625 170.5625 156.625 171.753906 158.019531 C 171.890625 158.230469 171.96875 158.460938 171.988281 158.710938 C 172.539062 161.921875 173.855469 164.917969 174.71875 168.046875 C 174.925781 168.578125 175.054688 169.128906 175.105469 169.699219 C 175.09375 170.867188 175.414062 171.933594 176.070312 172.902344 C 176.324219 173.503906 176.421875 174.128906 176.363281 174.78125 C 176.378906 175.671875 176.34375 176.5625 176.246094 177.445312 C 176.101562 178.28125 176.265625 179.054688 176.738281 179.757812 C 177.003906 180.136719 177.167969 180.554688 177.226562 181.011719 C 177.289062 181.46875 177.242188 181.914062 177.085938 182.347656 C 176.4375 184.144531 176.925781 185.84375 177.285156 187.578125 C 177.316406 187.730469 177.402344 187.882812 177.449219 188.035156 C 177.617188 188.417969 177.679688 188.8125 177.640625 189.226562 C 177.601562 189.640625 177.464844 190.019531 177.230469 190.363281 C 176.921875 190.765625 176.746094 191.222656 176.710938 191.730469 C 176.671875 192.234375 176.773438 192.710938 177.019531 193.15625 C 177.386719 193.808594 177.566406 194.511719 177.558594 195.261719 C 177.550781 196.011719 177.355469 196.707031 176.976562 197.355469 C 176.652344 197.941406 176.570312 198.5625 176.726562 199.214844 C 176.824219 199.855469 176.863281 200.5 176.835938 201.152344 C 176.863281 201.878906 176.902344 202.601562 176.910156 203.332031 C 176.921875 203.8125 176.902344 204.296875 176.859375 204.777344 C 176.636719 206.054688 176.5 207.339844 176.449219 208.636719 C 176.527344 209.722656 176.265625 210.71875 175.671875 211.628906 C 175.132812 212.398438 174.929688 213.246094 175.066406 214.171875 C 175.203125 215.15625 175.125 216.125 174.835938 217.074219 C 174.671875 217.625 174.597656 218.1875 174.601562 218.761719 C 174.566406 219.90625 174.335938 221.007812 173.917969 222.074219 C 173.695312 222.769531 173.511719 223.476562 173.363281 224.191406 C 173.339844 224.519531 173.257812 224.835938 173.121094 225.136719 C 171.960938 226.71875 172.273438 228.707031 171.671875 230.417969 C 170.671875 233.234375 170.472656 236.316406 168.824219 238.925781 C 168.597656 239.273438 168.460938 239.65625 168.417969 240.070312 C 168.371094 240.480469 168.417969 240.882812 168.558594 241.273438 C 168.765625 241.808594 168.9375 242.351562 169.078125 242.902344 C 169.160156 243.179688 169.1875 243.464844 169.167969 243.75 C 169.148438 244.039062 169.078125 244.316406 168.960938 244.582031 C 168.84375 244.84375 168.6875 245.082031 168.484375 245.289062 C 168.285156 245.5 168.054688 245.667969 167.796875 245.792969 C 167.652344 245.875 167.503906 245.941406 167.347656 245.992188 C 166.242188 246.351562 165.496094 246.953125 165.394531 248.199219 C 165.347656 248.8125 164.84375 249.136719 164.289062 249.425781 C 162.261719 250.527344 160.304688 249.882812 158.394531 249.15625 C 157.484375 248.808594 156.660156 248.265625 155.628906 248.386719 C 155.378906 248.402344 155.140625 248.351562 154.917969 248.234375 C 152.914062 247.3125 150.816406 246.726562 148.625 246.476562 C 148.316406 246.386719 148.015625 246.273438 147.722656 246.136719 C 146.738281 245.71875 145.707031 245.492188 144.636719 245.464844 C 144.066406 245.449219 143.511719 245.339844 142.980469 245.136719 C 141.203125 244.546875 139.375 244.210938 137.503906 244.128906 C 137.253906 244.144531 137.019531 244.082031 136.808594 243.945312 C 136.074219 243.238281 135.1875 243.394531 134.292969 243.339844 C 132.5625 243.253906 130.929688 242.816406 129.390625 242.027344 C 127.757812 241.0625 126.003906 240.429688 124.132812 240.121094 C 123.027344 239.988281 121.960938 239.382812 120.777344 239.570312 C 120.609375 239.585938 120.449219 239.558594 120.296875 239.488281 L 115.738281 237.207031 C 115.25 236.953125 114.75 236.730469 114.234375 236.53125 C 113.46875 236.242188 112.691406 236.003906 111.898438 235.8125 C 110.820312 235.578125 109.917969 235.050781 109.179688 234.234375 C 108.804688 233.796875 108.355469 233.453125 107.832031 233.207031 C 107.308594 232.960938 106.757812 232.832031 106.179688 232.820312 C 105.601562 232.804688 105.054688 232.660156 104.546875 232.386719 C 104.035156 232.109375 103.617188 231.734375 103.285156 231.261719 C 102.710938 230.667969 102.027344 230.261719 101.234375 230.035156 C 100.140625 229.667969 99.148438 229.113281 98.261719 228.378906 C 97.894531 228.050781 97.476562 227.824219 97 227.703125 C 96 227.453125 95.21875 226.902344 94.648438 226.046875 C 93.859375 224.96875 92.839844 224.179688 91.597656 223.679688 C 90.546875 223.238281 89.734375 222.394531 88.5625 222.128906 C 88.15625 222 87.820312 221.769531 87.550781 221.441406 C 87.28125 221.113281 87.117188 220.742188 87.070312 220.320312 C 86.949219 219.757812 86.714844 219.246094 86.367188 218.789062 C 86.019531 218.332031 85.589844 217.96875 85.082031 217.699219 C 84.203125 217.148438 83.558594 216.269531 82.449219 215.992188 C 81.984375 215.792969 81.660156 215.457031 81.476562 214.984375 C 81.246094 214.273438 80.832031 213.6875 80.246094 213.222656 C 79.855469 212.917969 79.574219 212.53125 79.402344 212.066406 C 78.925781 210.925781 78.222656 209.949219 77.292969 209.136719 C 76.199219 208.230469 75.429688 207.105469 74.976562 205.761719 C 74.617188 204.453125 73.878906 203.40625 72.761719 202.625 C 72.179688 202.152344 71.777344 201.558594 71.558594 200.84375 C 71.265625 199.902344 70.832031 199.03125 70.257812 198.230469 C 70.210938 198.164062 70.171875 198.09375 70.140625 198.015625 C 70.046875 197.789062 69.855469 197.546875 69.882812 197.339844 C 70.121094 195.714844 68.617188 194.546875 68.777344 192.925781 C 68.804688 192.511719 68.75 192.113281 68.617188 191.722656 C 67.796875 189.410156 68.277344 187.085938 68.542969 184.761719 C 68.570312 184.265625 68.707031 183.800781 68.960938 183.371094 C 69.214844 182.941406 69.550781 182.59375 69.976562 182.332031 C 70.523438 181.953125 70.925781 181.457031 71.183594 180.847656 C 71.90625 179.472656 76.160156 175.769531 77.683594 175.5 C 79.765625 175.066406 81.722656 174.304688 83.546875 173.214844 C 83.886719 172.96875 84.265625 172.835938 84.683594 172.8125 C 86.34375 172.988281 87.277344 171.621094 88.554688 171.0625 C 88.59375 171.0625 88.582031 170.730469 88.554688 170.703125 C 88.035156 170.460938 87.503906 170.257812 86.980469 170.027344 C 86.90625 169.988281 86.847656 169.9375 86.800781 169.871094 C 86.753906 169.804688 86.726562 169.734375 86.714844 169.652344 C 86.707031 169.570312 86.714844 169.496094 86.746094 169.417969 C 86.773438 169.34375 86.820312 169.277344 86.878906 169.226562 C 87.234375 168.894531 87.628906 168.621094 88.0625 168.410156 C 89.738281 167.75 91.445312 167.199219 93.191406 166.753906 C 94.636719 166.488281 96.09375 166.386719 97.5625 166.449219 C 98.3125 166.515625 99.019531 166.730469 99.675781 167.097656 C 100.488281 167.59375 101.347656 167.695312 102.253906 167.398438 C 102.851562 167.234375 103.386719 167.351562 103.863281 167.753906 C 104.3125 168.097656 104.804688 168.371094 105.339844 168.570312 C 106.300781 168.796875 107.179688 169.203125 107.96875 169.792969 C 108.359375 170.105469 108.800781 170.304688 109.292969 170.394531 C 110.269531 170.613281 111.121094 171.074219 111.835938 171.773438 C 112.648438 172.449219 113.429688 173.171875 114.296875 173.773438 C 115.839844 174.84375 117.347656 175.929688 118.40625 177.53125 C 118.644531 177.863281 118.945312 178.128906 119.304688 178.324219 C 119.929688 178.617188 120.351562 179.089844 120.574219 179.738281 C 120.640625 179.953125 120.816406 180.246094 121 180.289062 C 122.070312 180.597656 122.871094 181.238281 123.402344 182.214844 C 123.460938 182.28125 123.53125 182.316406 123.621094 182.324219 C 125.371094 182.390625 126.777344 183.527344 128.429688 183.902344 C 129.125 184.117188 129.808594 184.371094 130.476562 184.664062 C 130.6875 184.734375 131.027344 184.847656 131.027344 184.5 C 131.027344 183.4375 131.582031 182.460938 131.40625 181.371094 C 131.296875 180.882812 131.316406 180.402344 131.472656 179.925781 C 131.804688 179.097656 131.53125 178.324219 131.472656 177.523438 C 131.398438 175.835938 131.183594 174.125 131.878906 172.503906 C 132.179688 171.792969 132.1875 171.074219 131.910156 170.355469 C 131.59375 169.457031 131.664062 168.589844 132.113281 167.753906 C 132.328125 167.316406 132.460938 166.835938 132.664062 166.390625 C 133.097656 165.578125 133.28125 164.714844 133.21875 163.796875 C 133.15625 163.300781 133.210938 162.816406 133.382812 162.347656 C 133.554688 161.878906 133.820312 161.472656 134.1875 161.132812 C 134.726562 160.707031 135.03125 160.15625 135.105469 159.476562 C 135.1875 158.464844 135.574219 157.585938 136.269531 156.84375 C 136.785156 156.273438 137.023438 155.605469 136.996094 154.839844 C 137.015625 154.257812 137.199219 153.730469 137.546875 153.261719 C 138.25 152.265625 139.011719 151.316406 139.832031 150.410156 C 141.578125 148.492188 143.332031 146.546875 145.179688 144.75 C 146.59375 143.285156 148.128906 141.953125 149.78125 140.761719 C 151.082031 139.925781 152.488281 139.328125 153.992188 138.96875 C 155.375 138.617188 156.746094 138.640625 158.113281 139.035156 C 158.667969 139.183594 159.21875 139.351562 159.773438 139.507812 C 160.484375 139.78125 161.203125 139.808594 161.933594 139.589844 C 162.8125 139.277344 163.488281 139.699219 164.144531 140.273438 C 165.292969 141.289062 165.75 142.71875 166.40625 144.011719 C 166.957031 145.242188 167.433594 146.503906 167.839844 147.789062 Z M 141.011719 189.683594 C 141.183594 190.039062 141.398438 190.367188 141.644531 190.671875 C 142.195312 191.277344 142.8125 191.800781 143.503906 192.238281 C 144.617188 192.816406 145.5 193.632812 146.152344 194.699219 C 146.53125 195.363281 147.085938 195.8125 147.8125 196.046875 C 148.027344 196.140625 148.246094 196.140625 148.464844 196.046875 C 148.648438 195.878906 148.71875 195.671875 148.679688 195.429688 C 147.855469 193.816406 148.347656 191.886719 147.390625 190.304688 C 147.234375 189.914062 147.207031 189.515625 147.3125 189.113281 C 147.46875 188.453125 147.351562 187.84375 146.960938 187.289062 C 146.65625 186.84375 146.457031 186.355469 146.359375 185.828125 C 146.265625 185.296875 146.28125 184.769531 146.40625 184.246094 C 146.613281 183.34375 146.527344 182.472656 146.152344 181.628906 C 145.988281 181.289062 145.921875 180.933594 145.945312 180.558594 C 145.96875 180.183594 146.082031 179.835938 146.285156 179.523438 C 146.625 178.996094 146.671875 178.445312 146.433594 177.867188 C 146.285156 177.410156 146.347656 176.875 146.160156 176.4375 C 145.699219 175.257812 145.652344 174.0625 146.015625 172.851562 C 146.066406 172.371094 146.066406 171.894531 146.015625 171.417969 C 145.957031 170.855469 145.957031 170.292969 146.015625 169.734375 C 146.136719 169.09375 146.160156 168.453125 146.082031 167.808594 C 145.964844 166.597656 145.835938 165.367188 146.738281 164.320312 C 146.894531 164.035156 146.992188 163.726562 147.03125 163.40625 C 147.585938 161.574219 147.429688 159.542969 148.65625 157.886719 C 148.792969 157.671875 148.847656 157.433594 148.824219 157.179688 C 148.667969 155.050781 149.929688 153.320312 150.410156 151.347656 C 150.53125 150.945312 150.761719 150.617188 151.097656 150.359375 C 152.085938 149.617188 152.363281 148.5 152.753906 147.4375 C 152.753906 147.289062 152.6875 147.175781 152.5625 147.101562 C 152.402344 147.046875 152.253906 147.070312 152.113281 147.160156 C 151.664062 147.625 151.074219 148.058594 150.875 148.621094 C 150.558594 149.390625 150.046875 149.996094 149.339844 150.433594 C 148.734375 150.847656 148.167969 151.300781 147.636719 151.800781 C 146.953125 152.484375 146.351562 153.257812 145.714844 154.007812 C 145.675781 155.320312 144.417969 155.519531 143.714844 156.214844 C 143.316406 156.640625 143.09375 157.144531 143.050781 157.726562 C 143.050781 158.550781 142.421875 159.046875 142.230469 159.714844 C 142.023438 160.46875 142.164062 161.320312 142.070312 162.125 C 141.988281 162.441406 141.832031 162.71875 141.613281 162.964844 C 140.28125 164.871094 139.992188 167.164062 139.28125 169.292969 C 139.183594 169.515625 139.109375 169.75 139.058594 169.988281 C 139.03125 170.230469 139.046875 170.472656 139.101562 170.710938 C 139.363281 171.625 139.234375 172.488281 138.726562 173.292969 C 138.617188 173.59375 138.574219 173.90625 138.597656 174.226562 C 138.464844 175.742188 138.898438 177.285156 138.316406 178.792969 C 138.207031 179.070312 138.472656 179.59375 138.714844 179.898438 C 139.324219 180.507812 139.609375 181.242188 139.574219 182.105469 C 139.554688 183.085938 139.695312 184.039062 140 184.972656 C 140.152344 185.675781 139.960938 186.496094 140.246094 187.113281 C 140.722656 187.90625 140.976562 188.761719 141.011719 189.683594 Z M 161.144531 170.375 C 161.214844 170.605469 161.429688 170.925781 161.386719 171.230469 C 161.089844 173.132812 161.667969 174.925781 162.023438 176.746094 C 162.039062 176.828125 162.039062 176.910156 162.023438 176.988281 C 161.761719 178 162.15625 178.914062 162.386719 179.859375 C 162.59375 180.480469 162.667969 181.117188 162.609375 181.765625 C 162.265625 183.78125 162.199219 185.804688 162.421875 187.835938 C 162.535156 189.050781 162.511719 190.261719 162.347656 191.472656 C 162.273438 192.601562 162.300781 193.726562 162.433594 194.851562 C 162.515625 195.492188 162.546875 196.132812 162.519531 196.78125 C 162.277344 198.152344 162.230469 199.53125 162.375 200.914062 C 162.453125 201.574219 162.351562 202.207031 162.074219 202.8125 C 161.382812 204.207031 161.519531 205.640625 161.625 207.082031 C 161.667969 207.976562 161.8125 208.859375 161.796875 209.746094 C 161.796875 210.851562 161.796875 212.03125 160.691406 212.855469 C 160.421875 213.15625 160.277344 213.511719 160.253906 213.914062 C 160.179688 214.386719 160.386719 214.949219 160.203125 215.351562 C 159.507812 216.859375 160.757812 217.753906 161.210938 218.890625 C 161.210938 218.890625 161.335938 218.933594 161.394531 218.890625 C 161.449219 218.847656 161.570312 218.796875 161.574219 218.742188 C 161.722656 217.636719 161.855469 216.488281 162 215.363281 C 162.125 214.902344 162.1875 214.429688 162.179688 213.953125 C 162.003906 213.210938 162.097656 212.507812 162.460938 211.839844 C 162.640625 211.464844 162.703125 211.074219 162.640625 210.664062 C 162.535156 209.851562 162.585938 209.050781 162.792969 208.257812 C 163.25 206.375 163.582031 204.460938 163.953125 202.558594 C 164.050781 202.246094 164.085938 201.925781 164.058594 201.597656 C 163.71875 199.820312 164.65625 198.039062 164.03125 196.257812 C 163.996094 195.925781 164.058594 195.613281 164.21875 195.320312 C 164.5625 194.46875 164.671875 193.59375 164.542969 192.6875 C 164.480469 192.273438 164.542969 191.878906 164.738281 191.507812 C 165.324219 190.539062 165.027344 189.625 164.78125 188.671875 C 164.265625 186.832031 164.203125 184.980469 164.59375 183.113281 C 164.773438 182.570312 164.824219 182.015625 164.757812 181.449219 C 164.6875 180.878906 164.5 180.355469 164.195312 179.871094 C 163.882812 179.429688 163.683594 178.941406 163.597656 178.40625 C 163.511719 177.871094 163.550781 177.347656 163.710938 176.828125 C 163.800781 176.511719 163.800781 176.191406 163.710938 175.875 C 163.007812 173.667969 163.125 171.371094 162.824219 169.121094 C 162.703125 167.753906 162.507812 166.394531 162.238281 165.050781 C 162.058594 164.496094 162.058594 163.945312 162.238281 163.394531 C 162.832031 162.25 162.632812 161.1875 162.238281 160.082031 C 161.960938 159.320312 161.6875 158.554688 161.464844 157.769531 C 161.265625 157.230469 161.226562 156.679688 161.347656 156.117188 C 161.613281 155.308594 161.5625 154.523438 161.199219 153.753906 C 160.855469 152.761719 160.320312 151.8125 160.929688 150.714844 C 161.035156 150.515625 160.839844 150.097656 160.703125 149.824219 C 160.496094 149.476562 160.261719 149.144531 160.003906 148.828125 C 159.949219 148.769531 159.882812 148.726562 159.804688 148.699219 C 159.730469 148.671875 159.652344 148.660156 159.570312 148.671875 C 159.488281 148.683594 159.414062 148.710938 159.347656 148.757812 C 159.28125 148.804688 159.230469 148.867188 159.191406 148.9375 C 158.753906 149.628906 158.367188 150.34375 157.886719 151 C 156.984375 152.25 156.710938 153.515625 158.261719 154.503906 C 158.617188 154.722656 158.898438 155.011719 159.105469 155.371094 C 159.316406 155.730469 159.429688 156.117188 159.445312 156.53125 C 159.59375 158.230469 159.828125 159.933594 159.804688 161.632812 C 159.804688 163.117188 159.773438 164.574219 160.332031 165.960938 C 160.890625 167.34375 160.425781 168.929688 161.144531 170.363281 Z M 105.460938 217.710938 L 105.570312 217.644531 C 104.78125 216.414062 104.023438 215.164062 103.183594 213.96875 C 102.914062 213.550781 102.546875 213.265625 102.074219 213.109375 C 101.003906 212.863281 100.417969 212.054688 99.820312 211.320312 C 98.796875 210.078125 98.160156 208.523438 96.75 207.585938 C 96.550781 207.421875 96.425781 207.214844 96.386719 206.960938 C 96.28125 206.144531 95.746094 205.71875 95.121094 205.273438 C 94.632812 204.839844 94.175781 204.378906 93.742188 203.894531 C 92.90625 203.191406 92.339844 202.316406 92.046875 201.265625 C 91.839844 200.738281 91.582031 200.238281 91.277344 199.761719 C 90.722656 198.597656 89.945312 197.480469 89.617188 196.25 C 89.222656 194.820312 88.496094 193.578125 87.4375 192.53125 C 85.824219 190.878906 86.445312 188.730469 88.644531 187.945312 C 88.953125 187.835938 89.269531 187.742188 89.574219 187.628906 C 90.367188 187.304688 91.164062 187.304688 91.957031 187.628906 C 93.183594 188.085938 94.394531 188.539062 95.234375 189.617188 C 95.28125 189.679688 95.5 189.617188 95.628906 189.585938 C 95.660156 189.585938 95.683594 189.4375 95.679688 189.359375 C 95.625 188.742188 95.328125 188.285156 94.789062 187.980469 C 93.261719 187.042969 92.316406 185.4375 90.769531 184.507812 C 90.359375 184.210938 90.074219 183.824219 89.90625 183.351562 C 89.320312 181.917969 88.183594 181.25 86.746094 180.941406 C 86.101562 180.800781 85.828125 180.90625 85.59375 181.492188 C 85.375 181.933594 85.214844 182.390625 85.109375 182.871094 C 84.886719 184.480469 84.703125 186.097656 84.558594 187.714844 C 84.464844 188.285156 84.492188 188.847656 84.628906 189.410156 C 84.878906 190.164062 85.410156 190.832031 85.652344 191.617188 C 85.839844 192.398438 85.976562 193.191406 86.054688 193.996094 C 86.113281 194.148438 86.195312 194.289062 86.304688 194.414062 C 86.71875 195.015625 87.164062 195.59375 87.542969 196.21875 C 88.179688 197.25 89.109375 198.117188 89.417969 199.335938 C 89.914062 201.105469 90.867188 202.574219 92.28125 203.75 C 93.300781 204.714844 94.0625 205.847656 94.566406 207.152344 C 95.0625 208.5625 95.898438 209.71875 97.082031 210.628906 C 98.398438 211.496094 99.503906 212.578125 100.402344 213.867188 C 101.679688 215.882812 103.789062 216.871094 105.34375 218.503906 C 105.382812 218.542969 105.539062 218.542969 105.558594 218.503906 C 105.65625 218.402344 105.710938 218.28125 105.726562 218.144531 C 105.660156 217.984375 105.574219 217.839844 105.460938 217.710938 Z M 108.320312 209.640625 C 108.597656 210.21875 108.976562 210.714844 109.457031 211.140625 C 109.9375 211.5625 110.476562 211.878906 111.082031 212.085938 C 111.542969 212.300781 111.910156 212.621094 112.191406 213.042969 C 113.125 214.394531 114.339844 215.417969 115.832031 216.113281 C 116.644531 216.417969 117.21875 216.972656 117.554688 217.769531 C 117.792969 218.410156 118.238281 218.84375 118.878906 219.070312 C 119.785156 219.5 120.5 220.136719 121.027344 220.988281 C 121.605469 221.78125 122.300781 222.460938 123.105469 223.027344 C 124.449219 224.050781 126.035156 224.746094 127.121094 226.117188 C 127.417969 226.402344 127.765625 226.605469 128.164062 226.71875 C 129.390625 227.214844 130.460938 227.941406 131.371094 228.898438 C 132.023438 229.515625 132.726562 230.070312 133.484375 230.554688 C 134.0625 231.042969 134.730469 231.304688 135.484375 231.347656 C 135.878906 230.511719 135.121094 230.03125 134.871094 229.390625 C 134.320312 227.847656 133.484375 226.476562 132.363281 225.28125 C 132.003906 224.824219 131.546875 224.511719 130.992188 224.339844 C 130.058594 224.164062 129.34375 223.671875 128.84375 222.867188 C 128.582031 222.558594 128.277344 222.296875 127.925781 222.089844 C 126.433594 220.988281 125.117188 219.636719 123.261719 219.066406 C 122.667969 218.890625 122.230469 218.183594 121.640625 218.039062 C 120.753906 217.78125 120.039062 217.277344 119.5 216.527344 C 118.710938 215.433594 117.671875 214.699219 116.375 214.320312 C 116.0625 214.21875 115.773438 214.074219 115.507812 213.886719 C 114.394531 213.222656 113.355469 212.457031 112.394531 211.585938 C 111.023438 210.355469 109.359375 209.449219 107.808594 208.417969 C 107.722656 208.355469 107.550781 208.417969 107.421875 208.417969 C 107.421875 208.496094 107.421875 208.59375 107.421875 208.636719 C 107.683594 208.941406 107.96875 209.238281 108.320312 209.640625 Z M 95.773438 172.621094 L 95.773438 172.558594 C 94.765625 172.882812 93.753906 173.199219 92.753906 173.546875 C 92.546875 173.65625 92.363281 173.796875 92.199219 173.964844 C 92.371094 174.214844 92.566406 174.441406 92.792969 174.644531 C 93.058594 174.839844 93.351562 174.976562 93.675781 175.046875 C 95.5 175.480469 97.34375 175.808594 99.207031 176.039062 C 102.601562 176.34375 105.921875 177.011719 109.171875 178.042969 C 110.03125 178.3125 110.828125 178.707031 111.765625 178.339844 C 112.132812 178.191406 111.765625 177.789062 110.25 176.402344 C 109.210938 175.476562 108.195312 174.554688 106.777344 174.230469 C 106.394531 174.097656 106.054688 173.898438 105.757812 173.628906 C 104.855469 172.96875 104.0625 172.082031 102.75 172.386719 C 102.628906 172.386719 102.441406 172.289062 102.320312 172.1875 C 101.164062 171.285156 99.875 171.488281 98.609375 171.78125 C 97.628906 172 96.707031 172.332031 95.773438 172.621094 Z M 128.671875 195.941406 C 128.535156 195.714844 128.4375 195.3125 128.191406 195.191406 C 126.976562 194.585938 126.703125 193.078125 125.492188 192.464844 C 125.246094 192.339844 125.128906 191.953125 124.941406 191.683594 C 124.605469 191.132812 124.316406 190.550781 123.941406 190.027344 C 123.183594 188.96875 122.417969 187.910156 121.585938 186.910156 C 121.058594 186.179688 120.414062 185.574219 119.65625 185.09375 C 118.59375 184.542969 117.304688 184.503906 116.292969 183.769531 C 115.09375 183.910156 114.082031 183.308594 113.035156 182.902344 C 112.273438 182.613281 111.640625 182.726562 111.796875 182.964844 C 112.027344 183.300781 112.296875 183.601562 112.605469 183.871094 C 112.804688 184.007812 113.023438 184.105469 113.261719 184.15625 C 114.203125 184.480469 115.039062 184.980469 115.761719 185.664062 C 116.507812 186.445312 117.390625 187.015625 118.410156 187.378906 C 118.734375 187.480469 118.996094 187.664062 119.203125 187.929688 C 120.230469 189.191406 121.410156 190.296875 122.742188 191.242188 C 123.292969 191.6875 123.742188 192.34375 124.359375 192.679688 C 125.792969 193.5 126.988281 194.582031 127.945312 195.925781 C 128.039062 196.050781 128.15625 196.152344 128.285156 196.238281 C 128.371094 196.265625 128.449219 196.253906 128.523438 196.207031 C 128.601562 196.167969 128.613281 196.074219 128.671875 195.941406 Z M 133.574219 192.578125 L 133.308594 192.164062 C 133.058594 191.730469 132.71875 191.386719 132.28125 191.136719 C 131.847656 190.890625 131.382812 190.765625 130.878906 190.773438 C 130.492188 190.773438 129.875 190.550781 129.773438 190.707031 C 129.496094 191.109375 130.011719 191.382812 130.242188 191.695312 C 130.476562 192.003906 131 192.417969 131.105469 192.847656 C 131.425781 194.125 132.910156 194.738281 132.925781 196.15625 C 133.480469 196.863281 134.003906 197.574219 134.585938 198.265625 C 134.652344 198.34375 134.855469 198.316406 134.992188 198.304688 C 135.03125 198.304688 135.097656 198.164062 135.082031 198.109375 C 135 197.550781 134.84375 197.015625 134.613281 196.5 C 133.949219 195.429688 133.445312 194.351562 133.648438 193.054688 C 133.644531 192.894531 133.617188 192.734375 133.574219 192.578125 Z M 113.542969 194.230469 C 113.117188 193.84375 112.648438 193.421875 112.171875 193 C 112.09375 192.964844 112.019531 192.964844 111.941406 193 C 111.875 193.058594 111.847656 193.132812 111.851562 193.222656 C 111.886719 193.601562 112.039062 193.921875 112.304688 194.191406 C 112.574219 194.464844 112.894531 194.617188 113.273438 194.65625 C 113.34375 194.667969 113.402344 194.644531 113.449219 194.597656 C 113.5 194.539062 113.5 194.453125 113.542969 194.253906 Z M 116 196.304688 C 116 196.445312 115.90625 196.648438 116 196.71875 C 116.402344 197.238281 116.933594 197.503906 117.59375 197.519531 C 117.664062 197.503906 117.71875 197.460938 117.753906 197.394531 C 117.785156 197.328125 117.785156 197.261719 117.753906 197.195312 C 117.613281 196.90625 117.410156 196.679688 117.136719 196.507812 C 116.863281 196.339844 116.570312 196.253906 116.25 196.257812 C 116.164062 196.269531 116.078125 196.292969 116 196.328125 Z M 120.191406 199.617188 L 120.140625 199.429688 L 119.949219 199.539062 C 119.984375 199.59375 120.023438 199.644531 120.070312 199.695312 C 120.070312 199.695312 120.136719 199.644531 120.191406 199.617188 Z M 120.191406 199.617188 " fill-opacity="1" fill-rule="nonzero"/><g clip-path="url(#547c784330)"><path fill="#ff9797" d="M 285.6875 114.066406 C 284.992188 114.921875 284.03125 116.078125 283.09375 117.25 C 282.886719 117.511719 282.703125 117.789062 282.542969 118.082031 C 282.421875 118.296875 282.375 118.558594 282.253906 118.773438 C 281.363281 120.351562 280.191406 121.785156 279.792969 123.617188 C 279.703125 123.859375 279.566406 124.0625 279.375 124.234375 C 277.113281 126.703125 275.503906 129.625 273.484375 132.269531 C 273.175781 132.769531 272.808594 133.21875 272.378906 133.621094 C 271.421875 134.332031 270.75 135.25 270.371094 136.378906 C 270.167969 136.929688 269.53125 137.378906 269.023438 137.785156 C 268.308594 138.359375 267.5625 138.882812 266.78125 139.359375 C 266.007812 139.757812 265.484375 140.371094 265.210938 141.195312 C 265.066406 141.644531 264.828125 142.039062 264.496094 142.371094 C 264.160156 142.707031 263.769531 142.949219 263.320312 143.09375 C 261.457031 143.691406 260.367188 145.140625 259.191406 146.515625 C 259.089844 146.648438 259 146.789062 258.917969 146.933594 C 258.710938 147.308594 258.429688 147.605469 258.066406 147.832031 C 257.703125 148.058594 257.308594 148.179688 256.882812 148.203125 C 256.367188 148.214844 255.890625 148.363281 255.460938 148.648438 C 255.03125 148.9375 254.710938 149.316406 254.507812 149.792969 C 253.832031 151.359375 252.597656 152.070312 251.066406 152.375 C 250.390625 152.480469 249.835938 152.800781 249.410156 153.335938 C 248.945312 153.8125 248.445312 154.246094 247.898438 154.625 C 247.347656 155.105469 246.757812 155.585938 246.171875 156.050781 C 245.785156 156.359375 245.382812 156.644531 244.960938 156.90625 C 243.78125 157.523438 242.644531 158.21875 241.554688 158.984375 C 240.722656 159.726562 239.75 160.140625 238.636719 160.222656 C 237.675781 160.269531 236.859375 160.636719 236.1875 161.324219 C 235.472656 162.050781 234.640625 162.589844 233.6875 162.945312 C 233.140625 163.160156 232.632812 163.445312 232.167969 163.808594 C 231.210938 164.496094 230.164062 165.003906 229.03125 165.332031 C 228.324219 165.585938 227.636719 165.878906 226.964844 166.207031 C 226.679688 166.390625 226.378906 166.519531 226.050781 166.597656 C 224.03125 166.644531 222.617188 168.140625 220.847656 168.710938 C 217.929688 169.660156 215.316406 171.421875 212.144531 171.714844 C 211.71875 171.746094 211.324219 171.875 210.960938 172.09375 C 210.59375 172.3125 210.296875 172.601562 210.070312 172.960938 C 209.761719 173.460938 209.425781 173.9375 209.0625 174.402344 C 208.886719 174.640625 208.675781 174.839844 208.429688 175.003906 C 208.183594 175.167969 207.914062 175.285156 207.625 175.351562 C 207.339844 175.421875 207.046875 175.441406 206.753906 175.410156 C 206.457031 175.375 206.175781 175.292969 205.910156 175.164062 C 205.761719 175.097656 205.613281 175.015625 205.476562 174.925781 C 204.5 174.261719 203.539062 174.019531 202.449219 174.726562 C 201.898438 175.0625 201.34375 174.871094 200.792969 174.617188 C 198.640625 173.652344 197.933594 171.671875 197.335938 169.652344 C 197.054688 168.691406 196.980469 167.691406 196.230469 166.917969 C 196.058594 166.726562 195.953125 166.503906 195.910156 166.25 C 195.410156 164.054688 194.578125 161.988281 193.414062 160.054688 C 193.296875 159.746094 193.199219 159.429688 193.128906 159.105469 C 192.851562 158.046875 192.394531 157.074219 191.757812 156.1875 C 191.382812 155.722656 191.105469 155.210938 190.914062 154.648438 C 190.289062 152.839844 189.421875 151.152344 188.320312 149.582031 C 188.152344 149.390625 188.054688 149.164062 188.035156 148.90625 C 188.152344 147.867188 187.480469 147.25 186.960938 146.488281 C 185.953125 145.035156 185.289062 143.4375 184.972656 141.699219 C 184.742188 139.773438 184.164062 137.957031 183.242188 136.253906 C 182.648438 135.257812 182.488281 134.046875 181.582031 133.191406 C 181.460938 133.066406 181.382812 132.921875 181.347656 132.753906 C 181.011719 131.050781 180.691406 129.34375 180.359375 127.640625 C 180.273438 127.082031 180.160156 126.53125 180.015625 125.984375 C 179.769531 125.1875 179.476562 124.40625 179.144531 123.640625 C 178.664062 122.625 178.527344 121.5625 178.734375 120.460938 C 178.855469 119.882812 178.851562 119.304688 178.722656 118.730469 C 178.597656 118.152344 178.359375 117.625 178.007812 117.152344 C 177.65625 116.675781 177.433594 116.144531 177.335938 115.5625 C 177.238281 114.976562 177.277344 114.402344 177.457031 113.839844 C 177.574219 113.007812 177.480469 112.195312 177.175781 111.410156 C 176.792969 110.296875 176.621094 109.148438 176.660156 107.96875 C 176.707031 107.464844 176.636719 106.980469 176.445312 106.511719 C 176.023438 105.550781 175.984375 104.574219 176.328125 103.582031 C 176.703125 102.265625 176.703125 100.945312 176.328125 99.625 C 176.03125 98.523438 176.210938 97.320312 175.691406 96.207031 C 175.550781 95.796875 175.527344 95.378906 175.628906 94.957031 C 175.726562 94.53125 175.933594 94.167969 176.246094 93.867188 C 176.628906 93.417969 176.898438 92.910156 177.054688 92.34375 C 177.210938 91.777344 177.238281 91.203125 177.140625 90.621094 C 177.046875 89.5625 177.351562 88.496094 176.882812 87.425781 C 176.757812 86.921875 176.832031 86.449219 177.101562 86.007812 C 177.535156 85.375 177.753906 84.679688 177.761719 83.914062 C 177.769531 83.40625 177.910156 82.9375 178.179688 82.503906 C 178.835938 81.402344 179.210938 80.214844 179.304688 78.933594 C 179.363281 77.488281 179.796875 76.160156 180.601562 74.957031 C 181.449219 73.851562 181.84375 72.605469 181.785156 71.214844 C 181.804688 70.449219 182.035156 69.75 182.484375 69.125 C 183.066406 68.304688 183.503906 67.410156 183.800781 66.449219 C 183.824219 66.371094 183.855469 66.292969 183.898438 66.222656 C 184.027344 66.003906 184.097656 65.671875 184.289062 65.589844 C 185.761719 64.765625 185.765625 62.828125 187.15625 61.929688 C 187.511719 61.703125 187.8125 61.417969 188.050781 61.070312 C 189.449219 58.976562 191.632812 57.925781 193.691406 56.65625 C 194.113281 56.367188 194.578125 56.191406 195.085938 56.128906 C 195.59375 56.066406 196.085938 56.125 196.566406 56.300781 C 197.214844 56.511719 197.867188 56.53125 198.523438 56.351562 C 200.09375 56.101562 205.769531 57.234375 206.953125 58.308594 C 208.609375 59.722656 210.453125 60.828125 212.480469 61.621094 C 212.890625 61.746094 213.238281 61.96875 213.519531 62.292969 C 214.410156 63.75 216.101562 63.65625 217.390625 64.363281 C 217.429688 64.363281 217.679688 64.179688 217.664062 64.113281 C 217.539062 63.5625 217.375 63.011719 217.238281 62.421875 C 217.21875 62.339844 217.222656 62.257812 217.25 62.179688 C 217.273438 62.101562 217.3125 62.03125 217.371094 61.972656 C 217.429688 61.914062 217.5 61.871094 217.582031 61.847656 C 217.660156 61.824219 217.742188 61.820312 217.824219 61.835938 C 218.320312 61.917969 218.792969 62.074219 219.238281 62.304688 C 220.816406 63.25 222.328125 64.292969 223.773438 65.433594 C 224.871094 66.445312 225.847656 67.5625 226.691406 68.792969 C 227.097656 69.429688 227.355469 70.121094 227.464844 70.867188 C 227.570312 71.839844 228.023438 72.597656 228.832031 73.148438 C 229.335938 73.535156 229.574219 74.042969 229.546875 74.675781 C 229.546875 75.253906 229.632812 75.820312 229.800781 76.375 C 230.21875 77.296875 230.433594 78.265625 230.445312 79.277344 C 230.4375 79.785156 230.550781 80.269531 230.777344 80.722656 C 231.214844 81.652344 231.371094 82.628906 231.25 83.648438 C 231.203125 84.75 231.105469 85.808594 231.15625 86.878906 C 231.242188 88.800781 231.296875 90.699219 230.65625 92.558594 C 230.539062 92.957031 230.507812 93.363281 230.570312 93.777344 C 230.722656 94.464844 230.605469 95.105469 230.214844 95.691406 C 230.050781 95.894531 229.988281 96.125 230.027344 96.382812 C 230.441406 97.441406 230.421875 98.492188 229.960938 99.53125 C 229.9375 99.617188 229.953125 99.699219 230.003906 99.769531 C 231.042969 101.238281 230.988281 103.082031 231.71875 104.660156 C 231.980469 105.351562 232.203125 106.054688 232.386719 106.773438 C 232.460938 106.992188 232.59375 107.355469 232.878906 107.128906 C 233.738281 106.460938 234.894531 106.324219 235.644531 105.476562 C 235.984375 105.089844 236.398438 104.820312 236.882812 104.660156 C 237.761719 104.410156 238.222656 103.710938 238.851562 103.179688 C 240.179688 102.078125 241.441406 100.828125 243.191406 100.386719 C 243.957031 100.183594 244.546875 99.746094 244.957031 99.070312 C 245.492188 98.253906 246.238281 97.769531 247.203125 97.613281 C 247.695312 97.511719 248.164062 97.324219 248.652344 97.203125 C 249.582031 97.042969 250.398438 96.652344 251.105469 96.027344 C 251.46875 95.671875 251.894531 95.414062 252.382812 95.257812 C 252.871094 95.101562 253.367188 95.066406 253.871094 95.144531 C 254.554688 95.324219 255.199219 95.226562 255.800781 94.859375 C 256.675781 94.292969 257.632812 94.058594 258.671875 94.160156 C 259.457031 94.21875 260.148438 94 260.753906 93.496094 C 261.242188 93.148438 261.785156 92.972656 262.386719 92.972656 C 263.636719 92.914062 264.886719 92.9375 266.136719 93.039062 C 268.785156 93.257812 271.4375 93.480469 274.070312 93.839844 C 276.144531 94.074219 278.183594 94.488281 280.1875 95.078125 C 281.679688 95.617188 283.039062 96.382812 284.273438 97.378906 C 285.414062 98.28125 286.253906 99.40625 286.789062 100.757812 C 287.011719 101.308594 287.214844 101.859375 287.429688 102.386719 C 287.648438 103.132812 288.074219 103.734375 288.707031 104.191406 C 289.515625 104.707031 289.585938 105.519531 289.527344 106.398438 C 289.414062 107.964844 288.535156 109.222656 287.898438 110.5625 C 287.230469 111.773438 286.492188 112.941406 285.6875 114.066406 Z M 234.871094 118.453125 C 234.6875 118.8125 234.550781 119.191406 234.457031 119.582031 C 234.308594 120.40625 234.269531 121.230469 234.339844 122.0625 C 234.566406 123.320312 234.449219 124.550781 233.992188 125.746094 C 233.683594 126.476562 233.664062 127.210938 233.941406 127.953125 C 234.015625 128.164062 234.167969 128.441406 234.34375 128.503906 C 234.597656 128.554688 234.8125 128.484375 234.988281 128.296875 C 235.777344 126.640625 237.65625 125.820312 238.347656 124.058594 C 238.566406 123.6875 238.875 123.417969 239.273438 123.246094 C 239.90625 122.964844 240.328125 122.492188 240.535156 121.828125 C 240.703125 121.304688 240.976562 120.835938 241.347656 120.425781 C 241.71875 120.015625 242.15625 119.699219 242.664062 119.472656 C 243.523438 119.078125 244.179688 118.464844 244.628906 117.636719 C 244.804688 117.292969 245.050781 117.011719 245.371094 116.796875 C 245.691406 116.582031 246.042969 116.457031 246.429688 116.425781 C 247.054688 116.371094 247.527344 116.074219 247.847656 115.535156 C 248.136719 115.125 248.605469 114.84375 248.84375 114.429688 C 249.519531 113.324219 250.460938 112.539062 251.671875 112.074219 C 252.101562 111.804688 252.492188 111.492188 252.847656 111.128906 C 253.269531 110.734375 253.726562 110.390625 254.226562 110.09375 C 254.820312 109.792969 255.359375 109.414062 255.832031 108.945312 C 256.746094 108.097656 257.667969 107.222656 259.085938 107.289062 C 259.382812 107.289062 259.699219 107.070312 260.007812 106.953125 C 261.855469 106.269531 263.421875 104.855469 265.539062 104.824219 C 265.796875 104.796875 266.023438 104.695312 266.21875 104.519531 C 267.878906 103.0625 270.089844 103.007812 271.953125 102.171875 C 272.355469 102.011719 272.769531 101.992188 273.1875 102.109375 C 274.40625 102.445312 275.492188 101.976562 276.597656 101.617188 C 276.71875 101.523438 276.765625 101.402344 276.746094 101.253906 C 276.703125 101.121094 276.542969 100.945312 276.421875 100.933594 C 275.761719 100.863281 275.042969 100.652344 274.464844 100.839844 C 273.640625 101.066406 272.828125 101.027344 272.03125 100.71875 C 271.304688 100.507812 270.570312 100.351562 269.824219 100.246094 C 268.839844 100.117188 267.839844 100.105469 266.847656 100.050781 C 265.742188 100.839844 264.804688 99.941406 263.785156 99.820312 C 263.183594 99.757812 262.632812 99.890625 262.125 100.222656 C 261.445312 100.71875 260.660156 100.535156 260.003906 100.773438 C 259.257812 101.078125 258.648438 101.722656 257.941406 102.148438 C 257.628906 102.273438 257.308594 102.324219 256.972656 102.296875 C 254.585938 102.40625 252.550781 103.597656 250.335938 104.355469 C 250.09375 104.414062 249.859375 104.496094 249.636719 104.601562 C 249.425781 104.734375 249.242188 104.898438 249.082031 105.089844 C 248.503906 105.867188 247.730469 106.304688 246.765625 106.398438 C 246.476562 106.398438 246.210938 106.699219 245.925781 106.875 C 244.609375 107.710938 243.625 109.027344 242.054688 109.492188 C 241.761719 109.582031 241.5 110.121094 241.421875 110.492188 C 241.304688 111.367188 240.882812 112.058594 240.152344 112.566406 C 239.34375 113.164062 238.652344 113.875 238.082031 114.699219 C 237.609375 115.253906 236.824219 115.621094 236.496094 116.238281 C 236.144531 117.117188 235.601562 117.851562 234.871094 118.453125 Z M 263.144531 122.71875 C 262.996094 122.921875 262.863281 123.300781 262.589844 123.445312 C 260.855469 124.402344 259.753906 125.988281 258.488281 127.414062 C 258.433594 127.480469 258.371094 127.53125 258.292969 127.566406 C 257.316406 127.988281 256.8125 128.875 256.1875 129.652344 C 255.816406 130.207031 255.34375 130.664062 254.777344 131.023438 C 252.929688 131.996094 251.25 133.203125 249.734375 134.640625 C 248.816406 135.488281 247.820312 136.226562 246.738281 136.847656 C 245.769531 137.488281 244.867188 138.210938 244.035156 139.015625 C 243.570312 139.488281 243.066406 139.914062 242.523438 140.292969 C 241.261719 140.945312 240.113281 141.757812 239.078125 142.730469 C 238.589844 143.207031 238.007812 143.519531 237.34375 143.667969 C 235.777344 143.976562 234.714844 145.007812 233.589844 145.96875 C 232.890625 146.558594 232.261719 147.226562 231.523438 147.769531 C 230.597656 148.457031 229.652344 149.175781 228.324219 148.820312 C 227.921875 148.800781 227.550781 148.90625 227.21875 149.128906 C 226.785156 149.367188 226.453125 149.890625 226.011719 149.992188 C 224.351562 150.367188 224.402344 151.929688 223.765625 153.007812 C 223.765625 153.035156 223.804688 153.140625 223.855469 153.175781 C 223.90625 153.207031 224.039062 153.257812 224.09375 153.230469 C 225.101562 152.679688 226.101562 152.054688 227.105469 151.46875 C 227.558594 151.28125 227.976562 151.035156 228.363281 150.734375 C 228.851562 150.125 229.484375 149.757812 230.257812 149.632812 C 230.65625 149.546875 230.996094 149.359375 231.28125 149.074219 C 231.875 148.488281 232.558594 148.03125 233.328125 147.707031 C 235.148438 146.902344 236.910156 145.972656 238.691406 145.089844 C 239.003906 144.972656 239.289062 144.800781 239.539062 144.578125 C 240.777344 143.195312 242.804688 142.839844 243.867188 141.222656 C 244.117188 140.988281 244.410156 140.84375 244.746094 140.789062 C 245.652344 140.542969 246.433594 140.085938 247.089844 139.414062 C 247.394531 139.097656 247.765625 138.90625 248.199219 138.835938 C 249.34375 138.707031 249.90625 137.898438 250.523438 137.109375 C 251.703125 135.539062 253.175781 134.328125 254.949219 133.484375 C 255.503906 133.289062 255.988281 132.988281 256.40625 132.578125 C 256.824219 132.167969 257.136719 131.691406 257.34375 131.144531 C 257.507812 130.613281 257.777344 130.148438 258.160156 129.746094 C 258.539062 129.34375 258.992188 129.046875 259.511719 128.851562 C 259.828125 128.746094 260.09375 128.5625 260.300781 128.300781 C 261.652344 126.363281 263.621094 124.992188 265.246094 123.375 C 266.285156 122.421875 267.269531 121.417969 268.199219 120.363281 C 268.53125 119.867188 268.976562 119.523438 269.542969 119.328125 C 270.835938 119.09375 271.570312 118.277344 272.210938 117.261719 C 272.640625 116.542969 273.105469 115.851562 273.613281 115.1875 C 273.925781 114.695312 274.347656 114.328125 274.878906 114.082031 C 275.703125 113.796875 276.3125 113.265625 276.707031 112.488281 C 277.300781 111.59375 277.742188 110.566406 279.015625 110.375 C 279.242188 110.335938 279.457031 109.921875 279.566406 109.636719 C 279.730469 109.25 279.855469 108.855469 279.949219 108.449219 C 279.96875 108.367188 279.96875 108.285156 279.949219 108.203125 C 279.929688 108.121094 279.890625 108.050781 279.835938 107.984375 C 279.78125 107.921875 279.714844 107.875 279.632812 107.84375 C 279.554688 107.816406 279.472656 107.804688 279.390625 107.816406 C 278.5625 107.890625 277.730469 108.023438 276.902344 108.046875 C 275.320312 108.089844 274.136719 108.664062 274.28125 110.535156 C 274.320312 110.953125 274.261719 111.359375 274.101562 111.75 C 273.941406 112.140625 273.699219 112.472656 273.375 112.742188 C 272.078125 113.921875 270.835938 115.175781 269.441406 116.21875 C 268.21875 117.128906 267.027344 118.027344 266.25 119.347656 C 265.476562 120.664062 263.855469 121.238281 263.144531 122.710938 Z M 189.898438 107.121094 L 190.019531 107.15625 C 190.527344 105.757812 191.070312 104.359375 191.523438 102.9375 C 191.691406 102.457031 191.691406 101.972656 191.523438 101.492188 C 191.054688 100.476562 191.359375 99.503906 191.574219 98.554688 C 191.945312 96.949219 192.8125 95.464844 192.679688 93.738281 C 192.679688 93.472656 192.773438 93.246094 192.960938 93.054688 C 193.554688 92.460938 193.570312 91.757812 193.515625 90.976562 C 193.558594 90.3125 193.648438 89.652344 193.78125 89 C 193.828125 87.882812 194.1875 86.878906 194.859375 85.988281 C 195.160156 85.492188 195.410156 84.96875 195.605469 84.417969 C 196.191406 83.226562 196.628906 81.921875 197.417969 80.886719 C 198.335938 79.671875 198.886719 78.308594 199.078125 76.800781 C 199.441406 74.445312 201.554688 73.621094 203.566406 74.917969 C 203.84375 75.101562 204.121094 75.300781 204.402344 75.46875 C 205.152344 75.921875 205.644531 76.570312 205.867188 77.417969 C 206.253906 78.699219 206.648438 79.960938 206.289062 81.320312 C 206.289062 81.390625 206.453125 81.535156 206.558594 81.613281 C 206.664062 81.6875 206.71875 81.566406 206.773438 81.511719 C 207.238281 81.085938 207.425781 80.558594 207.328125 79.933594 C 207.140625 78.113281 207.878906 76.347656 207.648438 74.511719 C 207.636719 73.996094 207.773438 73.523438 208.050781 73.09375 C 208.855469 71.71875 208.6875 70.386719 208.050781 69.03125 C 207.765625 68.417969 207.5 68.269531 206.886719 68.441406 C 206.390625 68.542969 205.914062 68.699219 205.457031 68.910156 C 204.003906 69.726562 202.578125 70.566406 201.160156 71.46875 C 200.644531 71.746094 200.199219 72.117188 199.828125 72.574219 C 199.363281 73.246094 199.160156 74.097656 198.691406 74.78125 C 198.175781 75.417969 197.621094 76.023438 197.03125 76.589844 C 196.9375 76.730469 196.878906 76.886719 196.847656 77.054688 C 196.617188 77.761719 196.417969 78.484375 196.152344 79.179688 C 195.703125 80.335938 195.597656 81.632812 194.785156 82.644531 C 193.65625 84.144531 193.054688 85.835938 192.976562 87.714844 C 192.832031 89.140625 192.382812 90.464844 191.632812 91.6875 C 190.800781 92.964844 190.375 94.367188 190.367188 95.890625 C 190.484375 97.488281 190.300781 99.054688 189.816406 100.582031 C 188.96875 102.871094 189.488281 105.199219 189.125 107.472656 C 189.125 107.527344 189.210938 107.65625 189.257812 107.65625 C 189.398438 107.667969 189.53125 107.636719 189.65625 107.5625 C 189.757812 107.425781 189.839844 107.277344 189.898438 107.121094 Z M 198.246094 104.40625 C 197.953125 104.984375 197.78125 105.597656 197.730469 106.246094 C 197.679688 106.894531 197.757812 107.527344 197.960938 108.144531 C 198.066406 108.644531 198.035156 109.136719 197.867188 109.617188 C 197.339844 111.238281 197.265625 112.878906 197.644531 114.539062 C 197.902344 115.382812 197.8125 116.191406 197.378906 116.957031 C 197.015625 117.550781 196.9375 118.179688 197.148438 118.84375 C 197.363281 119.84375 197.292969 120.820312 196.925781 121.773438 C 196.644531 122.742188 196.527344 123.726562 196.566406 124.730469 C 196.566406 126.457031 196.992188 128.175781 196.566406 129.914062 C 196.519531 130.332031 196.574219 130.738281 196.726562 131.132812 C 197.089844 132.433594 197.164062 133.753906 196.953125 135.089844 C 196.863281 136.007812 196.863281 136.925781 196.953125 137.847656 C 196.910156 138.621094 197.109375 139.332031 197.550781 139.972656 C 198.472656 139.761719 198.390625 138.867188 198.761719 138.25 C 199.671875 136.839844 200.265625 135.308594 200.542969 133.652344 C 200.6875 133.078125 200.65625 132.515625 200.449219 131.960938 C 200.015625 131.09375 199.96875 130.207031 200.304688 129.300781 C 200.394531 128.894531 200.417969 128.484375 200.371094 128.070312 C 200.328125 126.175781 200.613281 124.269531 199.917969 122.402344 C 199.695312 121.8125 199.996094 121.019531 199.746094 120.449219 C 199.402344 119.570312 199.367188 118.675781 199.648438 117.773438 C 200.046875 116.453125 199.996094 115.144531 199.503906 113.855469 C 199.394531 113.539062 199.332031 113.214844 199.320312 112.878906 C 199.148438 111.566406 199.113281 110.25 199.214844 108.929688 C 199.359375 107.054688 199.0625 105.136719 198.933594 103.242188 C 198.933594 103.128906 198.777344 103.03125 198.695312 102.925781 C 198.636719 102.976562 198.539062 103.015625 198.53125 103.074219 C 198.417969 103.449219 198.347656 103.859375 198.246094 104.40625 Z M 220.550781 71.148438 L 220.585938 71.101562 C 219.691406 70.488281 218.808594 69.863281 217.898438 69.269531 C 217.683594 69.167969 217.453125 69.105469 217.214844 69.082031 C 217.117188 69.375 217.054688 69.675781 217.03125 69.984375 C 217.035156 70.324219 217.109375 70.644531 217.253906 70.953125 C 218.035156 72.695312 218.910156 74.390625 219.878906 76.039062 C 221.765625 78.984375 223.304688 82.097656 224.496094 85.386719 C 224.8125 86.25 225.007812 87.167969 225.875 87.675781 C 226.222656 87.886719 226.339844 87.328125 226.5 85.242188 C 226.609375 83.820312 226.726562 82.429688 226.101562 81.070312 C 225.964844 80.675781 225.910156 80.269531 225.941406 79.851562 C 225.941406 78.703125 226.140625 77.511719 225.078125 76.640625 C 224.976562 76.558594 224.96875 76.324219 224.96875 76.164062 C 224.96875 74.664062 224.023438 73.75 222.988281 72.90625 C 222.214844 72.269531 221.367188 71.734375 220.550781 71.148438 Z M 222.082031 112.382812 C 222.179688 112.128906 222.445312 111.792969 222.394531 111.523438 C 222.125 110.160156 223.1875 108.996094 222.949219 107.660156 C 222.894531 107.378906 223.136719 107.042969 223.253906 106.738281 C 223.492188 106.125 223.804688 105.53125 223.972656 104.902344 C 224.363281 103.625 224.75 102.347656 225.039062 101.039062 C 225.304688 100.160156 225.394531 99.261719 225.308594 98.347656 C 225.089844 97.148438 224.332031 96.066406 224.296875 94.792969 C 223.433594 93.90625 223.304688 92.722656 222.972656 91.609375 C 222.734375 90.816406 222.246094 90.375 222.152344 90.644531 C 222.019531 91.042969 221.9375 91.449219 221.914062 91.867188 C 221.925781 92.117188 221.984375 92.355469 222.089844 92.582031 C 222.414062 93.542969 222.527344 94.527344 222.421875 95.539062 C 222.253906 96.628906 222.339844 97.703125 222.679688 98.753906 C 222.785156 99.0625 222.796875 99.375 222.710938 99.691406 C 222.328125 101.316406 222.164062 102.964844 222.21875 104.632812 C 222.21875 105.371094 221.9375 106.132812 222.058594 106.839844 C 222.285156 108.511719 222.152344 110.152344 221.648438 111.765625 C 221.613281 111.921875 221.597656 112.082031 221.609375 112.246094 C 221.609375 112.304688 221.710938 112.390625 221.78125 112.410156 C 221.855469 112.433594 221.941406 112.382812 222.082031 112.382812 Z M 227.882812 114.253906 C 227.9375 114.09375 227.988281 113.9375 228.046875 113.785156 C 228.25 113.3125 228.316406 112.824219 228.246094 112.3125 C 228.179688 111.804688 227.984375 111.351562 227.664062 110.949219 C 227.433594 110.628906 227.21875 109.988281 227.03125 110 C 226.527344 110.03125 226.621094 110.617188 226.519531 111 C 226.472656 111.496094 226.335938 111.972656 226.117188 112.421875 C 225.277344 113.476562 225.695312 115.058594 224.558594 115.953125 C 224.320312 116.835938 224.078125 117.714844 223.859375 118.601562 C 223.859375 118.695312 223.992188 118.851562 224.089844 118.953125 C 224.183594 119.058594 224.257812 118.953125 224.296875 118.90625 C 224.703125 118.488281 225.042969 118.027344 225.316406 117.515625 C 225.773438 116.3125 226.332031 115.234375 227.527344 114.589844 C 227.660156 114.484375 227.777344 114.363281 227.882812 114.226562 Z M 214.023438 99.042969 C 214.074219 98.457031 214.128906 97.8125 214.167969 97.164062 C 214.164062 97.074219 214.121094 97.007812 214.039062 96.960938 C 213.953125 96.949219 213.875 96.96875 213.808594 97.027344 C 213.527344 97.292969 213.359375 97.617188 213.308594 98 C 213.253906 98.386719 213.328125 98.742188 213.527344 99.074219 C 213.5625 99.132812 213.617188 99.167969 213.6875 99.179688 C 213.765625 99.179688 213.835938 99.140625 214.023438 99.042969 Z M 213.871094 102.351562 C 213.746094 102.429688 213.53125 102.488281 213.507812 102.582031 C 213.34375 103.234375 213.457031 103.832031 213.851562 104.378906 C 213.914062 104.425781 213.984375 104.445312 214.0625 104.425781 C 214.132812 104.410156 214.1875 104.367188 214.222656 104.304688 C 214.371094 104.011719 214.429688 103.703125 214.394531 103.378906 C 214.363281 103.050781 214.246094 102.757812 214.046875 102.5 C 213.992188 102.4375 213.933594 102.378906 213.871094 102.324219 Z M 213.804688 107.796875 L 213.925781 107.636719 L 213.714844 107.550781 C 213.691406 107.613281 213.675781 107.675781 213.664062 107.742188 C 213.664062 107.742188 213.753906 107.753906 213.804688 107.769531 Z M 213.804688 107.796875 " fill-opacity="1" fill-rule="nonzero"/></g></svg>